<svg width="50" height="50" viewBox="0 0 50 50" fill="none" xmlns="http://www.w3.org/2000/svg">
<g clip-path="url(#clip0_138_4915)">
<path d="M21.9801 2.06174L21.3302 1.30174L21.3277 1.30391L21.9801 2.06174ZM28.0259 2.06174L28.6783 1.30386L28.6704 1.29715L28.0259 2.06174ZM31.8164 5.32517L32.4714 4.56952L32.4689 4.56733L31.8164 5.32517ZM44.6756 18.186L45.4336 17.5336L45.4314 17.5311L44.6756 18.186ZM47.9384 21.9769L48.6985 21.3271L48.6963 21.3246L47.9384 21.9769ZM47.9384 28.0234L48.6964 28.6758L48.7031 28.6679L47.9384 28.0234ZM44.6756 31.8145L45.4314 32.4694L45.4336 32.4668L44.6756 31.8145ZM31.8164 44.6753L32.4688 45.4332L32.4714 45.431L31.8164 44.6753ZM28.0259 47.9383L28.6758 48.6983L28.6783 48.6961L28.0259 47.9383ZM21.9801 47.9383L21.3277 48.6962L21.3356 48.7029L21.9801 47.9383ZM18.1896 44.6753L17.5346 45.431L17.5372 45.4332L18.1896 44.6753ZM5.28242 31.8145L6.05071 31.1743L6.04475 31.1673L5.28242 31.8145ZM2.04361 27.9994L1.27807 28.6428L1.28128 28.6466L2.04361 27.9994ZM2.04361 22.0009L1.28127 21.3537L1.27808 21.3575L2.04361 22.0009ZM5.28242 18.186L6.04477 18.8332L6.05068 18.8261L5.28242 18.186ZM18.1896 5.32517L17.5371 4.56733L17.5346 4.56952L18.1896 5.32517ZM23.3956 34.4298L24.1028 33.7228L24.0575 33.6776L24.0069 33.6385L23.3956 34.4298ZM32.92 32.7503L31.9697 32.4391L31.9586 32.4731L31.9499 32.5078L32.92 32.7503ZM35.607 24.5443L34.6643 24.2108L34.6603 24.2219L34.6567 24.2331L35.607 24.5443ZM27.8579 20.2736L26.8695 20.122L26.8671 20.1376L26.8652 20.1533L27.8579 20.2736ZM28.4097 16.6744L27.4319 16.4649L27.4257 16.4938L27.4213 16.5229L28.4097 16.6744ZM26.9463 14.203L26.5923 15.1382L26.611 15.1453L26.63 15.1516L26.9463 14.203ZM24.4752 14.9947L23.6477 14.4332L23.6458 14.436L24.4752 14.9947ZM22.6301 2.82173C23.9086 1.72837 26.0716 1.72228 27.3813 2.82632L28.6704 1.29715C26.6214 -0.430103 23.3624 -0.436195 21.3302 1.30174L22.6301 2.82173ZM27.3734 2.81957L31.164 6.083L32.4689 4.56733L28.6783 1.3039L27.3734 2.81957ZM31.1615 6.08082C31.6373 6.49328 32.2679 6.82803 32.8879 7.05968C33.508 7.29136 34.2054 7.45282 34.8393 7.45282V5.45282C34.5135 5.45282 34.0595 5.36238 33.5879 5.18619C33.1163 5.00998 32.7153 4.78091 32.4714 4.56952L31.1615 6.08082ZM34.8393 7.45282H38.9178V5.45282H34.8393V7.45282ZM38.9178 7.45282C40.9085 7.45282 42.548 9.09236 42.548 11.0835H44.548C44.548 7.98795 42.0132 5.45282 38.9178 5.45282V7.45282ZM42.548 11.0835V15.1627H44.548V11.0835H42.548ZM42.548 15.1627C42.548 15.7859 42.7102 16.4835 42.9405 17.1036C43.1709 17.7237 43.5053 18.3624 43.9199 18.8408L45.4314 17.5311C45.2222 17.2897 44.9927 16.8846 44.8153 16.407C44.6378 15.9293 44.548 15.4752 44.548 15.1627H42.548ZM43.9177 18.8383L47.1805 22.6293L48.6963 21.3246L45.4336 17.5336L43.9177 18.8383ZM47.1783 22.6268C48.2716 23.9055 48.2777 26.069 47.1737 27.379L48.7031 28.6679C50.43 26.6187 50.4361 23.3595 48.6985 21.3271L47.1783 22.6268ZM47.1805 27.3711L43.9177 31.1622L45.4336 32.4668L48.6963 28.6758L47.1805 27.3711ZM43.9199 31.1596C43.5075 31.6355 43.1728 32.2661 42.9412 32.8862C42.7095 33.5063 42.548 34.2038 42.548 34.8377H44.548C44.548 34.5119 44.6385 34.0577 44.8147 33.5861C44.9909 33.1144 45.22 32.7133 45.4314 32.4694L43.9199 31.1596ZM42.548 34.8377V38.917H44.548V34.8377H42.548ZM42.548 38.917C42.548 40.9081 40.9085 42.5476 38.9178 42.5476V44.5476C42.0132 44.5476 44.548 42.0126 44.548 38.917H42.548ZM38.9178 42.5476H34.8393V44.5476H38.9178V42.5476ZM34.8393 42.5476C34.2161 42.5476 33.5185 42.7097 32.8986 42.9401C32.2784 43.1706 31.6398 43.505 31.1615 43.9197L32.4714 45.431C32.7128 45.2217 33.1178 44.9923 33.5953 44.8149C34.0729 44.6374 34.5269 44.5476 34.8393 44.5476V42.5476ZM31.1641 43.9174L27.3735 47.1804L28.6783 48.6961L32.4688 45.4332L31.1641 43.9174ZM27.3759 47.1783C26.0974 48.2716 23.9344 48.2777 22.6247 47.1737L21.3356 48.7029C23.3846 50.4301 26.6436 50.4362 28.6758 48.6983L27.3759 47.1783ZM22.6325 47.1804L18.842 43.9174L17.5372 45.4332L21.3277 48.6961L22.6325 47.1804ZM18.8446 43.9197C18.3687 43.5072 17.7381 43.1724 17.1182 42.9408C16.4981 42.7091 15.8006 42.5476 15.1667 42.5476V44.5476C15.4925 44.5476 15.9465 44.638 16.4181 44.8142C16.8897 44.9905 17.2907 45.2196 17.5346 45.431L18.8446 43.9197ZM15.1667 42.5476H11.0162V44.5476H15.1667V42.5476ZM11.0162 42.5476C9.02553 42.5476 7.38598 40.9081 7.38598 38.917H5.38598C5.38598 42.0126 7.92086 44.5476 11.0162 44.5476V42.5476ZM7.38598 38.917V34.8137H5.38598V38.917H7.38598ZM7.38598 34.8137C7.38598 34.1898 7.22354 33.4983 6.99694 32.886C6.76984 32.2724 6.44434 31.6468 6.05068 31.1744L4.51416 32.4546C4.72027 32.702 4.94655 33.1081 5.12129 33.5802C5.29653 34.0537 5.38598 34.5019 5.38598 34.8137H7.38598ZM6.04475 31.1673L2.80594 27.3523L1.28128 28.6466L4.52009 32.4617L6.04475 31.1673ZM2.80914 27.356C1.73029 26.0724 1.73029 23.9279 2.80914 22.6443L1.27808 21.3575C-0.426027 23.3851 -0.426027 26.6153 1.27808 28.6428L2.80914 27.356ZM2.80593 22.6481L6.04474 18.8332L4.52009 17.5388L1.28128 21.3537L2.80593 22.6481ZM6.05068 18.8261C6.44434 18.3536 6.76984 17.728 6.99694 17.1144C7.22354 16.5022 7.38598 15.8106 7.38598 15.1867H5.38598C5.38598 15.4986 5.29653 15.9467 5.12129 16.4202C4.94655 16.8923 4.72027 17.2985 4.51416 17.5458L6.05068 18.8261ZM7.38598 15.1867V11.0835H5.38598V15.1867H7.38598ZM7.38598 11.0835C7.38598 9.09236 9.02556 7.45282 11.0162 7.45282V5.45282C7.92083 5.45282 5.38598 7.98795 5.38598 11.0835H7.38598ZM11.0162 7.45282H15.1667V5.45282H11.0162V7.45282ZM15.1667 7.45282C15.7899 7.45282 16.4875 7.2907 17.1074 7.06031C17.7276 6.82988 18.3662 6.49546 18.8446 6.08082L17.5346 4.56952C17.2933 4.77872 16.8883 5.00813 16.4108 5.18556C15.9332 5.36304 15.4791 5.45282 15.1667 5.45282V7.45282ZM18.8421 6.083L22.6326 2.81957L21.3277 1.30391L17.5372 4.56734L18.8421 6.083ZM19.3056 32.5339L22.7843 35.2212L24.0069 33.6385L20.5283 30.9511L19.3056 32.5339ZM22.6884 35.1369C23.0945 35.543 23.6541 35.7702 24.1104 35.8991C24.5903 36.0346 25.1016 36.1017 25.5308 36.1017V34.1017C25.2882 34.1017 24.9598 34.0607 24.6541 33.9744C24.3246 33.8813 24.1525 33.7726 24.1028 33.7228L22.6884 35.1369ZM25.5308 36.1017H29.7772V34.1017H25.5308V36.1017ZM29.7772 36.1017C30.6883 36.1017 31.5925 35.7652 32.3157 35.2378C33.0396 34.7099 33.6542 33.9369 33.8902 32.9928L31.9499 32.5078C31.85 32.9073 31.5649 33.31 31.1373 33.6219C30.7089 33.9342 30.2096 34.1017 29.7772 34.1017V36.1017ZM33.8704 33.0614L36.5574 24.8555L34.6567 24.2331L31.9697 32.4391L33.8704 33.0614ZM36.5498 24.8778C36.9244 23.819 36.7907 22.7355 36.1831 21.9053C35.5787 21.0793 34.589 20.617 33.4718 20.617V22.617C34.0341 22.617 34.3878 22.8386 34.5691 23.0863C34.7473 23.3298 34.8415 23.7099 34.6643 24.2108L36.5498 24.8778ZM33.4718 20.617H28.9855V22.617H33.4718V20.617ZM28.9855 20.617C28.9271 20.617 28.8967 20.5953 28.8822 20.579C28.8742 20.5699 28.8645 20.5555 28.8573 20.5312C28.8501 20.5071 28.8423 20.4631 28.8507 20.3939L26.8652 20.1533C26.697 21.5408 27.7138 22.617 28.9855 22.617V20.617ZM28.8464 20.4251L29.3982 16.826L27.4213 16.5229L26.8695 20.122L28.8464 20.4251ZM29.3875 16.8839C29.7163 15.3494 28.7253 13.742 27.2625 13.2543L26.63 15.1516C27.1825 15.3358 27.535 15.9839 27.4319 16.4649L29.3875 16.8839ZM27.3002 13.2677C26.5881 12.9982 25.837 13.0626 25.2213 13.2761C24.6112 13.4875 24.02 13.8844 23.6477 14.4332L25.3027 15.5561C25.3862 15.4331 25.5867 15.2661 25.8763 15.1657C26.1603 15.0673 26.4167 15.0718 26.5923 15.1382L27.3002 13.2677ZM23.6458 14.436L19.0395 21.2743L20.6983 22.3916L25.3046 15.5533L23.6458 14.436ZM15.1831 31.7423V20.7532H13.1831V31.7423H15.1831ZM15.1831 20.7532C15.1831 20.0712 15.3323 19.8841 15.3932 19.8282C15.4754 19.7527 15.7181 19.6177 16.4382 19.6177V17.6177C15.5749 17.6177 14.6901 17.7586 14.0405 18.355C13.3697 18.9709 13.1831 19.8517 13.1831 20.7532H15.1831ZM16.4382 19.6177H17.5658V17.6177H16.4382V19.6177ZM17.5658 19.6177C18.2698 19.6177 18.5172 19.7511 18.6048 19.831C18.6698 19.8901 18.821 20.08 18.821 20.7532H20.821C20.821 19.8429 20.6242 18.9649 19.9515 18.3523C19.3014 17.7602 18.4212 17.6177 17.5658 17.6177V19.6177ZM18.821 20.7532V31.7423H20.821V20.7532H18.821ZM18.821 31.7423C18.821 32.4077 18.6738 32.6 18.6075 32.6614C18.5225 32.7402 18.2772 32.878 17.5658 32.878V34.878C18.4378 34.878 19.3201 34.7277 19.9668 34.1285C20.6323 33.512 20.821 32.6365 20.821 31.7423H18.821ZM17.5658 32.878H16.4382V34.878H17.5658V32.878ZM16.4382 32.878C15.7182 32.878 15.4755 32.7429 15.3932 32.6674C15.3323 32.6115 15.1831 32.4243 15.1831 31.7423H13.1831C13.1831 32.6438 13.3697 33.5245 14.0405 34.1405C14.69 34.737 15.5748 34.878 16.4382 34.878V32.878Z" fill="#FF4500"/>
</g>
<defs>
<clipPath id="clip0_138_4915">
<rect width="50" height="50" fill="white"/>
</clipPath>
</defs>
</svg>
