<svg width="50" height="50" viewBox="0 0 50 50" fill="none" xmlns="http://www.w3.org/2000/svg">
<path fill-rule="evenodd" clip-rule="evenodd" d="M25 1C29.2663 1 33.4762 2.152 37.1779 4.32895L35.7464 6.76283C32.4767 4.84 28.7609 3.8235 25 3.8235C13.3219 3.8235 3.82353 13.3219 3.82353 25C3.82353 36.6781 13.3219 46.1764 25 46.1764C36.6781 46.1764 46.1765 36.6781 46.1765 25C46.1765 21.2362 45.16 17.5205 43.2372 14.2508L45.6682 12.8221C47.848 16.5238 49 20.7336 49 25C49 38.2339 38.2339 49 25 49C11.7661 49 1 38.2339 1 25C1 11.7661 11.7661 1 25 1ZM25 9.4706V12.2941C17.9948 12.2941 12.2941 17.9948 12.2941 25C12.2941 32.0052 17.9948 37.7059 25 37.7059C32.0052 37.7059 37.7059 32.0052 37.7059 25H40.5294C40.5294 33.5638 33.561 40.5294 25 40.5294C16.4391 40.5294 9.4706 33.5638 9.4706 25C9.4706 16.4363 16.4391 9.4706 25 9.4706ZM25 17.9412V20.7647C22.6649 20.7647 20.7647 22.6649 20.7647 25C20.7647 27.3351 22.6649 29.2353 25 29.2353C27.3351 29.2353 29.2353 27.3351 29.2353 25H32.0588C32.0588 28.8908 28.8937 32.0588 25 32.0588C21.1063 32.0588 17.9412 28.8908 17.9412 25C17.9412 21.1092 21.1063 17.9412 25 17.9412ZM46.5853 1.41167L48.5844 3.40793L34.0536 17.9412H40.5294V20.7647H29.2353V9.4706H32.0588V15.9432L46.5853 1.41167Z" fill="#FF4500"/>
</svg>
