<svg width="50" height="50" viewBox="0 0 50 50" fill="none" xmlns="http://www.w3.org/2000/svg">
<path d="M14.2 17.8C15.8614 17.8 17.4854 17.3074 18.8668 16.3843C20.2482 15.4613 21.3248 14.1494 21.9606 12.6145C22.5964 11.0796 22.7627 9.39069 22.4386 7.76125C22.1145 6.1318 21.3145 4.63507 20.1397 3.46031C18.9649 2.28555 17.4682 1.48552 15.8388 1.16141C14.2093 0.837292 12.5204 1.00364 10.9855 1.63942C9.45056 2.27519 8.13866 3.35184 7.21565 4.73321C6.29265 6.11459 5.8 7.73864 5.8 9.4C5.80254 11.627 6.68835 13.7621 8.26311 15.3369C9.83786 16.9116 11.973 17.7975 14.2 17.8ZM14.2 3.4C15.3867 3.4 16.5467 3.7519 17.5334 4.41119C18.5201 5.07047 19.2892 6.00755 19.7433 7.1039C20.1974 8.20026 20.3162 9.40666 20.0847 10.5705C19.8532 11.7344 19.2818 12.8035 18.4426 13.6426C17.6035 14.4818 16.5344 15.0532 15.3705 15.2847C14.2067 15.5162 13.0003 15.3974 11.9039 14.9433C10.8075 14.4892 9.87047 13.7201 9.21118 12.7334C8.55189 11.7467 8.2 10.5867 8.2 9.4C8.20191 7.80929 8.83466 6.28427 9.95946 5.15947C11.0843 4.03466 12.6093 3.40191 14.2 3.4ZM20.7112 37C20.4864 37.7842 20.3353 38.5877 20.26 39.4H1V31C1.00318 28.1366 2.14205 25.3915 4.16675 23.3668C6.19146 21.3421 8.93664 20.2032 11.8 20.2H16.6C19.1076 20.2041 21.5357 21.08 23.4684 22.6777C25.4011 24.2754 26.718 26.4955 27.1936 28.9576C26.3949 29.385 25.6422 29.8933 24.9472 30.4744C24.8167 28.347 23.8812 26.3491 22.3308 24.8865C20.7804 23.4239 18.7314 22.6064 16.6 22.6H11.8C9.57296 22.6025 7.43786 23.4884 5.86311 25.0631C4.28835 26.6379 3.40254 28.773 3.4 31V37H20.7112ZM35.8 27.4C37.4614 27.4 39.0854 26.9074 40.4668 25.9843C41.8482 25.0613 42.9248 23.7494 43.5606 22.2145C44.1964 20.6796 44.3627 18.9907 44.0386 17.3612C43.7145 15.7318 42.9145 14.2351 41.7397 13.0603C40.5649 11.8855 39.0682 11.0855 37.4388 10.7614C35.8093 10.4373 34.1204 10.6036 32.5855 11.2394C31.0506 11.8752 29.7387 12.9518 28.8157 14.3332C27.8927 15.7146 27.4 17.3386 27.4 19C27.4025 21.227 28.2884 23.3621 29.8631 24.9369C31.4379 26.5116 33.573 27.3975 35.8 27.4ZM35.8 13C36.9867 13 38.1467 13.3519 39.1334 14.0112C40.1201 14.6705 40.8892 15.6075 41.3433 16.7039C41.7974 17.8003 41.9162 19.0067 41.6847 20.1705C41.4532 21.3344 40.8818 22.4035 40.0426 23.2426C39.2035 24.0818 38.1344 24.6532 36.9705 24.8847C35.8067 25.1162 34.6003 24.9974 33.5039 24.5433C32.4075 24.0892 31.4705 23.3201 30.8112 22.3334C30.1519 21.3467 29.8 20.1867 29.8 19C29.8019 17.4093 30.4347 15.8843 31.5595 14.7595C32.6843 13.6347 34.2093 13.0019 35.8 13ZM49 40.6C48.9968 37.7366 47.858 34.9915 45.8332 32.9668C43.8085 30.9421 41.0634 29.8032 38.2 29.8H33.4C30.5366 29.8032 27.7915 30.9421 25.7668 32.9668C23.7421 34.9915 22.6032 37.7366 22.6 40.6V49H49V40.6ZM46.6 46.6H25V40.6C25.0025 38.373 25.8884 36.2379 27.4631 34.6631C29.0379 33.0884 31.173 32.2025 33.4 32.2H38.2C40.427 32.2025 42.5621 33.0884 44.1369 34.6631C45.7117 36.2379 46.5975 38.373 46.6 40.6V46.6Z" fill="#FF4500"/>
</svg>
