<svg width="26" height="26" viewBox="0 0 26 26" fill="none" xmlns="http://www.w3.org/2000/svg">
<g id="Frame 26086027">
<path id="Vector" d="M8.42476 4.42438C8.70768 4.14146 9.06776 4 9.505 4C9.94225 4 10.3023 4.14146 10.5853 4.42438L17.684 11.5231C17.8383 11.6775 17.9474 11.8447 18.0112 12.0247C18.075 12.2047 18.1074 12.3976 18.1084 12.6034C18.1084 12.8092 18.0698 13.0087 17.9927 13.2022C17.9155 13.3956 17.8126 13.5561 17.684 13.6836L10.5853 20.7824C10.3023 21.0653 9.94225 21.2068 9.505 21.2068C9.06776 21.2068 8.70768 21.0653 8.42476 20.7824C8.14184 20.4995 8.00037 20.1394 8.00037 19.7022C8.00037 19.2649 8.14184 18.9048 8.42476 18.6219L14.4433 12.6034L8.42476 6.58488C8.14184 6.30195 8.00037 5.94187 8.00037 5.50463C8.00037 5.06739 8.14184 4.7073 8.42476 4.42438Z" fill="#FF4500"/>
<rect x="0.5" y="0.5" width="25" height="25" rx="4.5" stroke="#FF4500"/>
</g>
</svg>
