<svg width="26" height="26" viewBox="0 0 26 26" fill="none" xmlns="http://www.w3.org/2000/svg">
<g id="Frame 26086029">
<path id="Vector" d="M17.5757 4.42438C17.2928 4.14146 16.9327 4 16.4955 4C16.0582 4 15.6982 4.14146 15.4152 4.42438L8.31647 11.5231C8.16215 11.6775 8.0531 11.8447 7.98931 12.0247C7.92553 12.2047 7.89312 12.3976 7.89209 12.6034C7.89209 12.8092 7.93067 13.0087 8.00783 13.2022C8.08499 13.3956 8.18787 13.5561 8.31647 13.6836L15.4152 20.7824C15.6982 21.0653 16.0582 21.2068 16.4955 21.2068C16.9327 21.2068 17.2928 21.0653 17.5757 20.7824C17.8587 20.4995 18.0001 20.1394 18.0001 19.7022C18.0001 19.2649 17.8587 18.9048 17.5757 18.6219L11.5572 12.6034L17.5757 6.58488C17.8587 6.30195 18.0001 5.94187 18.0001 5.50463C18.0001 5.06739 17.8587 4.7073 17.5757 4.42438Z" fill="#FF4500"/>
<rect x="-0.5" y="0.5" width="25" height="25" rx="4.5" transform="matrix(-1 0 0 1 25 0)" stroke="#FF4500"/>
</g>
</svg>
