<svg width="26" height="26" viewBox="0 0 26 26" fill="none" xmlns="http://www.w3.org/2000/svg">
<g id="Frame 26086027">
<rect width="26" height="26" rx="5" fill="#FF4500"/>
<path id="Vector" d="M8.42427 4.42438C8.70719 4.14146 9.06727 4 9.50452 4C9.94176 4 10.3018 4.14146 10.5848 4.42438L17.6835 11.5231C17.8378 11.6775 17.9469 11.8447 18.0107 12.0247C18.0745 12.2047 18.1069 12.3976 18.1079 12.6034C18.1079 12.8092 18.0693 13.0087 17.9922 13.2022C17.915 13.3956 17.8121 13.5561 17.6835 13.6836L10.5848 20.7824C10.3018 21.0653 9.94176 21.2068 9.50451 21.2068C9.06727 21.2068 8.70719 21.0653 8.42427 20.7824C8.14135 20.4995 7.99988 20.1394 7.99988 19.7022C7.99988 19.2649 8.14135 18.9048 8.42427 18.6219L14.4428 12.6034L8.42427 6.58488C8.14135 6.30195 7.99989 5.94187 7.99989 5.50463C7.99989 5.06739 8.14135 4.7073 8.42427 4.42438Z" fill="white"/>
</g>
</svg>
