<svg width="20" height="20" viewBox="0 0 20 20" fill="none" xmlns="http://www.w3.org/2000/svg">
<path fill-rule="evenodd" clip-rule="evenodd" d="M9.4893 19.8242L9.48722 19.8226L9.48205 19.8185L9.4638 19.8042C9.44813 19.7917 9.42555 19.7739 9.39647 19.7507C9.33847 19.7043 9.25455 19.6364 9.14855 19.5489C8.93663 19.374 8.63588 19.12 8.27579 18.7999C7.55682 18.1608 6.59571 17.2534 5.63189 16.1825C4.67049 15.1143 3.69041 13.8658 2.94686 12.544C2.20765 11.2298 1.66797 9.78275 1.66797 8.33333C1.66797 6.1232 2.54594 4.00358 4.10874 2.44077C5.67155 0.877975 7.79117 0 10.0013 0C12.2115 0 14.331 0.877975 15.8939 2.44077C17.4566 4.00358 18.3346 6.1232 18.3346 8.33333C18.3346 9.78275 17.795 11.2298 17.0557 12.544C16.3122 13.8658 15.3321 15.1143 14.3707 16.1825C13.4069 17.2534 12.4458 18.1608 11.7268 18.7999C11.3667 19.12 11.066 19.374 10.8541 19.5489C10.7481 19.6364 10.6641 19.7043 10.6061 19.7507C10.5771 19.7739 10.5545 19.7917 10.5388 19.8042L10.5206 19.8185L10.5154 19.8226L10.5138 19.8237C10.5138 19.8237 10.5129 19.8245 10.0013 19.1667L10.5129 19.8245C10.212 20.0585 9.79022 20.0582 9.4893 19.8242ZM10.0013 19.1667L9.4893 19.8242C9.4893 19.8242 9.48972 19.8245 10.0013 19.1667ZM12.5013 8.33333C12.5013 9.71408 11.3821 10.8333 10.0013 10.8333C8.62055 10.8333 7.5013 9.71408 7.5013 8.33333C7.5013 6.95262 8.62055 5.83333 10.0013 5.83333C11.3821 5.83333 12.5013 6.95262 12.5013 8.33333Z" fill="#292929"/>
</svg>
