<svg width="42" height="60" viewBox="0 0 42 60" fill="none" xmlns="http://www.w3.org/2000/svg">
<path d="M20.9764 0C9.38047 0 0 10.1101 0 22.6081C0 29.1111 3.01684 35.0045 5.98653 40.4406C9.61616 47.1981 13.9529 53.4974 18.9966 59.0859C20.0808 60.3047 21.8725 60.3047 23.0034 59.0859C27.4343 54.3611 31.3468 49.0266 34.6465 43.3364C38.1818 37.1886 42 30.0759 42 22.6081C41.9529 10.1609 32.5724 0 20.9764 0ZM20.9764 35.7157C13.9529 35.7157 8.24916 29.5684 8.24916 21.9984C8.24916 14.4285 13.9529 8.28117 20.9764 8.28117C28 8.28117 33.7037 14.3777 33.7037 21.9984C33.7037 29.6192 28 35.7157 20.9764 35.7157Z" fill="#FF4500"/>
</svg>
