<svg width="40" height="37" viewBox="0 0 40 37" fill="none" xmlns="http://www.w3.org/2000/svg">
<g id="Frame 28">
<path d="M0.0390625 0H32.5991C36.686 0 39.9991 3.31309 39.9991 7.4V29.6C39.9991 33.6869 36.686 37 32.5991 37H0.0390625V0Z" fill="#FF4500"/>
<path id="Vector" d="M30.5962 26.4961L25.4922 21.3218C26.3594 19.9223 26.8627 18.2682 26.8627 16.493C26.8627 11.4707 22.8463 7.3999 17.8921 7.3999C12.9379 7.3999 8.92188 11.4707 8.92188 16.493C8.92188 21.5155 12.9377 25.5859 17.8921 25.5859C19.7979 25.5859 21.5631 24.9819 23.0157 23.9556L28.0589 29.0683C28.4093 29.4231 28.8687 29.5999 29.3275 29.5999C29.7869 29.5999 30.2457 29.4231 30.5967 29.0683C31.297 28.3576 31.297 27.2065 30.5962 26.4961ZM17.8921 22.6399C14.5435 22.6399 11.8287 19.888 11.8287 16.4934C11.8287 13.0987 14.5435 10.3467 17.8921 10.3467C21.2409 10.3467 23.9556 13.0987 23.9556 16.4934C23.9556 19.888 21.2409 22.6399 17.8921 22.6399Z" fill="white"/>
</g>
</svg>
