<svg width="20" height="20" viewBox="0 0 20 20" fill="none" xmlns="http://www.w3.org/2000/svg">
<path d="M13.9513 13.118L13.4452 13.6211C13.4452 13.6211 12.2423 14.8172 8.95899 11.5524C5.67568 8.28778 6.87855 7.09173 6.87855 7.09173L7.19721 6.77486C7.98232 5.99426 8.05632 4.741 7.37132 3.82608L5.97028 1.95453C5.12253 0.82213 3.48439 0.672541 2.51272 1.6387L0.76872 3.37279C0.28692 3.85186 -0.0359464 4.47287 0.00320911 5.16178C0.103376 6.92423 0.900786 10.7163 5.35039 15.1406C10.069 19.8324 14.4964 20.0189 16.307 19.8501C16.8796 19.7968 17.3776 19.5051 17.779 19.106L19.3574 17.5366C20.4229 16.4772 20.1224 14.661 18.7592 13.92L16.6364 12.766C15.7413 12.2794 14.6509 12.4223 13.9513 13.118Z" fill="#292929"/>
</svg>
