<svg width="37" height="37" viewBox="0 0 37 37" fill="none" xmlns="http://www.w3.org/2000/svg">
<path d="M36.6702 28.3697C36.5708 28.1719 35.9556 26.5839 32.9954 23.32C29.8964 19.9022 30.3127 20.4571 34.0453 14.5475C36.3187 10.9483 37.2276 8.7504 36.9431 7.81078C36.6725 6.91512 35.0005 7.1514 35.0005 7.1514L29.4408 7.18986C29.4408 7.18986 29.0291 7.12393 28.7216 7.34097C28.4232 7.55527 28.2313 8.04981 28.2313 8.04981C28.2313 8.04981 27.3501 10.8357 26.1753 13.204C23.6984 18.2015 22.7063 18.4653 22.3016 18.1548C21.3603 17.4322 21.5962 15.248 21.5962 13.6985C21.5962 8.8548 22.2137 6.83545 20.3913 6.31344C19.7854 6.14035 19.3414 6.02496 17.7942 6.00573C15.8099 5.981 14.1286 6.01397 13.1781 6.5662C12.5444 6.93435 12.0565 7.75583 12.3548 7.80254C12.7225 7.86024 13.5551 8.06904 13.9968 8.78337C14.568 9.70375 14.5472 11.7753 14.5472 11.7753C14.5472 11.7753 14.8756 17.4762 13.7817 18.185C13.0301 18.6713 12.001 17.6795 9.79236 13.1435C8.66146 10.822 7.80578 8.25312 7.80578 8.25312C7.80578 8.25312 7.64158 7.77507 7.34787 7.51956C6.99172 7.2091 6.49218 7.11019 6.49218 7.11019L1.20542 7.14865C1.20542 7.14865 0.412171 7.17613 0.120775 7.58549C-0.138244 7.9509 0.0999611 8.70369 0.0999611 8.70369C0.0999611 8.70369 4.23964 20.2071 8.92511 26.0069C13.2244 31.3232 18.1041 30.9743 18.1041 30.9743H20.315C20.315 30.9743 20.9834 30.8863 21.3233 30.4495C21.6379 30.0484 21.6263 29.2956 21.6263 29.2956C21.6263 29.2956 21.5823 25.7707 22.9607 25.2514C24.3182 24.7404 26.062 28.6582 27.9098 30.1665C29.3067 31.3067 30.3682 31.0567 30.3682 31.0567L35.3104 30.9743C35.3104 30.9743 37.8959 30.7847 36.6702 28.3697Z" fill="#FF4500"/>
</svg>
