<svg width="37" height="37" viewBox="0 0 37 37" fill="none" xmlns="http://www.w3.org/2000/svg">
<g clip-path="url(#clip0_343_10345)">
<path d="M36.2301 10.0315C36.0206 9.28419 35.6125 8.60757 35.0492 8.07362C34.47 7.52325 33.7601 7.12956 32.9865 6.92971C30.0912 6.16658 18.4917 6.16658 18.4917 6.16658C13.656 6.11156 8.82149 6.35355 4.01545 6.89116C3.24183 7.10578 2.53324 7.50827 1.9527 8.06283C1.38228 8.61166 0.969118 9.28845 0.753285 10.03C0.234811 12.8231 -0.0170983 15.6592 0.000951491 18.4999C-0.0175485 21.3381 0.233743 24.1732 0.753285 26.9698C0.964493 27.7083 1.37612 28.382 1.94808 28.9262C2.52003 29.4704 3.23229 29.8635 4.01545 30.0717C6.94924 30.8332 18.4917 30.8332 18.4917 30.8332C23.3336 30.8883 28.1742 30.6464 32.9865 30.1087C33.7601 29.9088 34.47 29.5151 35.0492 28.9647C35.6196 28.4205 36.0251 27.7437 36.2286 27.0068C36.7606 24.2148 37.0193 21.3776 37.0009 18.5354C37.041 15.6811 36.7826 12.8305 36.2301 10.03V10.0315ZM14.804 23.7786V13.2228L24.4549 18.5015L14.804 23.7786Z" fill="#FF4500"/>
</g>
<defs>
<clipPath id="clip0_343_10345">
<rect width="37" height="37" fill="white"/>
</clipPath>
</defs>
</svg>
