<svg width="48" height="48" viewBox="0 0 48 48" fill="none" xmlns="http://www.w3.org/2000/svg">
<g id="email 2">
<path id="Vector" d="M43.9462 39.1485H4.05298C3.32228 39.1477 2.62175 38.857 2.10507 38.3403C1.58838 37.8236 1.29773 37.1231 1.29688 36.3924V10.8687C1.29773 10.1381 1.5884 9.43764 2.10511 8.92106C2.62181 8.40447 3.32234 8.11397 4.05298 8.11328H43.9449C44.6757 8.11362 45.3766 8.40398 45.8936 8.9206C46.4106 9.43722 46.7014 10.1379 46.7023 10.8687V36.3924C46.7014 37.1231 46.4108 37.8236 45.8941 38.3403C45.3774 38.857 44.6769 39.1477 43.9462 39.1485ZM4.05298 9.41058C3.6663 9.41092 3.29554 9.56464 3.02206 9.838C2.74857 10.1114 2.59469 10.4821 2.59417 10.8687V36.3924C2.59469 36.7792 2.74855 37.1499 3.02202 37.4234C3.29549 37.6969 3.66624 37.8507 4.05298 37.8512H43.9449C44.3318 37.8511 44.7029 37.6973 44.9767 37.4238C45.2504 37.1503 45.4045 36.7794 45.405 36.3924V10.8687C45.4045 10.4821 45.2506 10.1114 44.9771 9.838C44.7036 9.56464 44.3329 9.41092 43.9462 9.41058H4.05298Z" fill="white" fill-opacity="0.5"/>
<path id="Vector_2" d="M24.001 25.3828C23.3534 25.3841 22.723 25.1746 22.2049 24.7861L2.29071 9.79452C2.15309 9.6913 2.0621 9.53764 2.03777 9.36734C2.01344 9.19703 2.05776 9.02404 2.16098 8.88641C2.2642 8.74879 2.41787 8.6578 2.58817 8.63348C2.75847 8.60915 2.93146 8.65347 3.06909 8.75669L22.9826 23.7489C23.2759 23.9681 23.6322 24.0865 23.9984 24.0865C24.3645 24.0865 24.7209 23.9681 25.0142 23.7489L44.9309 8.75669C44.9991 8.70558 45.0766 8.66839 45.1591 8.64725C45.2416 8.62611 45.3275 8.62143 45.4118 8.63348C45.4962 8.64552 45.5773 8.67406 45.6506 8.71746C45.7239 8.76086 45.7879 8.81827 45.839 8.88641C45.8901 8.95456 45.9273 9.0321 45.9485 9.11462C45.9696 9.19714 45.9743 9.28301 45.9622 9.36734C45.9502 9.45166 45.9217 9.53279 45.8783 9.60609C45.8349 9.67938 45.7775 9.74341 45.7093 9.79452L25.7958 24.7867C25.278 25.1748 24.6481 25.384 24.001 25.3828Z" fill="white" fill-opacity="0.5"/>
<path id="Vector_3" d="M2.39123 38.3308C2.25834 38.3309 2.12863 38.2901 2.01965 38.2141C1.91067 38.138 1.82768 38.0304 1.7819 37.9056C1.73612 37.7808 1.72975 37.645 1.76367 37.5166C1.79759 37.3881 1.87016 37.2731 1.97155 37.1872L19.8613 22.0302C19.9925 21.919 20.1626 21.8645 20.3341 21.8787C20.5055 21.8928 20.6643 21.9745 20.7756 22.1058C20.8868 22.2371 20.9413 22.4071 20.9271 22.5786C20.913 22.7501 20.8312 22.9089 20.7 23.0201L2.81025 38.177C2.69336 38.2766 2.54476 38.3311 2.39123 38.3308Z" fill="white" fill-opacity="0.5"/>
<path id="Vector_4" d="M45.6123 38.3308C45.4588 38.3311 45.3102 38.2766 45.1933 38.177L27.3036 23.0201C27.2386 22.965 27.1851 22.8977 27.1461 22.8219C27.1071 22.7462 27.0834 22.6635 27.0764 22.5786C27.0694 22.4937 27.0792 22.4082 27.1052 22.3271C27.1312 22.246 27.1729 22.1708 27.228 22.1058C27.2831 22.0408 27.3504 21.9873 27.4261 21.9483C27.5019 21.9094 27.5846 21.8857 27.6695 21.8787C27.7544 21.8717 27.8398 21.8814 27.9209 21.9074C28.0021 21.9334 28.0773 21.9752 28.1423 22.0302L46.032 37.1872C46.1334 37.2731 46.206 37.3881 46.2399 37.5166C46.2738 37.645 46.2674 37.7808 46.2216 37.9056C46.1759 38.0303 46.0929 38.138 45.9839 38.2141C45.8749 38.2901 45.7452 38.3308 45.6123 38.3308Z" fill="white" fill-opacity="0.5"/>
</g>
</svg>
