<svg width="106" height="106" viewBox="0 0 106 106" fill="none" xmlns="http://www.w3.org/2000/svg">
<g id="&#208;&#146;&#209;&#139;&#208;&#191;&#208;&#190;&#208;&#187;&#208;&#189;&#208;&#181;&#208;&#189;&#208;&#184;&#208;&#181; 1">
<g id="Group">
<g id="Vector">
<path d="M20.3652 73.3743V98.3023H87.3436V23.2663L69.2142 8.91382H20.3652V77.1513" fill="#FF4500"/>
<path d="M20.3652 73.3743V98.3023H87.3436V23.2663L69.2142 8.91382H20.3652V77.1513" stroke="#FF4500" stroke-width="1.6162" stroke-miterlimit="10"/>
</g>
<path id="Vector_2" d="M27.293 27.4207L32.3289 36.2337L47.4369 14.8308" stroke="white" stroke-width="1.6162" stroke-miterlimit="10"/>
<path id="Vector_3" d="M27.293 52.6004L32.3289 61.4134L47.4369 40.0105" stroke="white" stroke-width="1.6162" stroke-miterlimit="10"/>
<path id="Vector_4" d="M27.293 77.7801L32.3289 86.5931L47.4369 65.1902" stroke="white" stroke-width="1.6162" stroke-miterlimit="10"/>
<path id="Vector_5" d="M52.4688 28.6804H76.3896" stroke="white" stroke-width="1.6162" stroke-miterlimit="10"/>
<path id="Vector_6" d="M52.4688 45.0466H73.8716" stroke="white" stroke-width="1.6162" stroke-miterlimit="10"/>
<path id="Vector_7" d="M52.4688 52.6013H66.3177" stroke="white" stroke-width="1.6162" stroke-miterlimit="10"/>
<path id="Vector_8" d="M52.4688 72.7449H73.8716" stroke="white" stroke-width="1.6162" stroke-miterlimit="10"/>
<path id="Vector_9" d="M52.4688 77.781H70.0947" stroke="white" stroke-width="1.6162" stroke-miterlimit="10"/>
<path id="Vector_10" d="M52.4688 84.0759H65.0587" stroke="white" stroke-width="1.6162" stroke-miterlimit="10"/>
<g id="Vector_11">
<path d="M68.6035 9L67.9998 23.0878L86.8674 23.8963" fill="white"/>
<path d="M68.6035 9L67.9998 23.0878L86.8674 23.8963" stroke="#FF4500" stroke-width="1.6162" stroke-miterlimit="10"/>
</g>
</g>
</g>
</svg>
