<svg width="326" height="325" viewBox="0 0 326 325" fill="none" xmlns="http://www.w3.org/2000/svg">
<path d="M46.3511 162.5L104.676 61.4791L221.324 61.4791L279.649 162.5L221.324 263.521L104.676 263.521L46.3511 162.5Z" stroke="#FF4500" stroke-width="4"/>
<path d="M179.335 93.1657V107.266H198.22" stroke="#FF4500" stroke-width="1.6162" stroke-miterlimit="10"/>
<path d="M130.864 157.374V182.302H197.843V107.266L179.713 92.9138H130.864V161.151" stroke="#FF4500" stroke-width="1.6162" stroke-miterlimit="10"/>
<path d="M137.791 111.421L142.827 120.234L157.935 98.8307" stroke="#FF4500" stroke-width="1.6162" stroke-miterlimit="10"/>
<path d="M137.791 136.6L142.827 145.413L157.935 124.01" stroke="#FF4500" stroke-width="1.6162" stroke-miterlimit="10"/>
<path d="M137.791 161.78L142.827 170.593L157.935 149.19" stroke="#FF4500" stroke-width="1.6162" stroke-miterlimit="10"/>
<path d="M162.969 112.68H186.89" stroke="#FF4500" stroke-width="1.6162" stroke-miterlimit="10"/>
<path d="M162.969 129.047H184.372" stroke="#FF4500" stroke-width="1.6162" stroke-miterlimit="10"/>
<path d="M162.969 136.601H176.818" stroke="#FF4500" stroke-width="1.6162" stroke-miterlimit="10"/>
<path d="M162.969 156.745H184.372" stroke="#FF4500" stroke-width="1.6162" stroke-miterlimit="10"/>
<path d="M162.969 161.781H180.595" stroke="#FF4500" stroke-width="1.6162" stroke-miterlimit="10"/>
<path d="M162.969 168.076H175.559" stroke="#FF4500" stroke-width="1.6162" stroke-miterlimit="10"/>
<path d="M120.944 213.702H123.706C124.903 213.702 125.807 213.875 126.416 214.222C127.025 214.569 127.33 215.168 127.33 216.019C127.33 216.374 127.267 216.696 127.14 216.984C127.017 217.267 126.837 217.502 126.6 217.688C126.363 217.87 126.071 217.993 125.724 218.056V218.12C126.084 218.183 126.403 218.295 126.683 218.456C126.966 218.617 127.188 218.848 127.349 219.148C127.514 219.449 127.597 219.838 127.597 220.316C127.597 220.883 127.461 221.366 127.19 221.763C126.924 222.161 126.541 222.464 126.042 222.671C125.546 222.878 124.958 222.982 124.277 222.982H120.944V213.702ZM122.468 217.529H123.928C124.618 217.529 125.096 217.417 125.362 217.193C125.629 216.969 125.762 216.641 125.762 216.209C125.762 215.769 125.604 215.452 125.286 215.257C124.973 215.062 124.474 214.965 123.788 214.965H122.468V217.529ZM122.468 218.761V221.706H124.074C124.785 221.706 125.284 221.569 125.572 221.294C125.86 221.019 126.003 220.646 126.003 220.176C126.003 219.889 125.938 219.639 125.807 219.427C125.68 219.216 125.47 219.053 125.178 218.939C124.886 218.82 124.493 218.761 123.998 218.761H122.468ZM129.361 222.982V215.955H130.859V218.761H132.275C132.935 218.761 133.479 218.837 133.906 218.989C134.334 219.138 134.651 219.362 134.858 219.662C135.066 219.963 135.169 220.339 135.169 220.792C135.169 221.237 135.07 221.624 134.871 221.954C134.672 222.28 134.361 222.534 133.938 222.716C133.515 222.893 132.96 222.982 132.275 222.982H129.361ZM130.859 221.884H132.173C132.622 221.884 132.984 221.804 133.259 221.643C133.538 221.478 133.678 221.207 133.678 220.83C133.678 220.479 133.549 220.231 133.291 220.088C133.037 219.939 132.664 219.865 132.173 219.865H130.859V221.884ZM136.255 222.982V215.955H137.753V222.982H136.255ZM146.024 215.955V222.982H144.52V217.136H141.384V222.982H139.886V215.955H146.024ZM154.384 219.453C154.384 220.037 154.308 220.555 154.155 221.008C154.003 221.461 153.781 221.844 153.489 222.157C153.197 222.466 152.846 222.703 152.435 222.868C152.025 223.029 151.561 223.109 151.045 223.109C150.562 223.109 150.12 223.029 149.718 222.868C149.316 222.703 148.967 222.466 148.671 222.157C148.379 221.844 148.153 221.461 147.992 221.008C147.831 220.555 147.75 220.037 147.75 219.453C147.75 218.678 147.884 218.022 148.15 217.485C148.421 216.943 148.806 216.531 149.306 216.247C149.805 215.964 150.4 215.822 151.089 215.822C151.737 215.822 152.308 215.964 152.803 216.247C153.298 216.531 153.686 216.943 153.965 217.485C154.244 218.027 154.384 218.683 154.384 219.453ZM149.287 219.453C149.287 219.965 149.348 220.403 149.471 220.767C149.598 221.131 149.792 221.41 150.055 221.605C150.317 221.795 150.656 221.89 151.07 221.89C151.485 221.89 151.824 221.795 152.086 221.605C152.348 221.41 152.541 221.131 152.664 220.767C152.786 220.403 152.848 219.965 152.848 219.453C152.848 218.941 152.786 218.507 152.664 218.152C152.541 217.792 152.348 217.519 152.086 217.333C151.824 217.142 151.483 217.047 151.064 217.047C150.446 217.047 149.995 217.254 149.712 217.669C149.428 218.084 149.287 218.678 149.287 219.453ZM161.88 222.982H160.376V217.123H158.427C158.343 218.19 158.237 219.102 158.11 219.859C157.983 220.617 157.824 221.234 157.634 221.713C157.443 222.187 157.208 222.534 156.929 222.754C156.65 222.974 156.313 223.084 155.92 223.084C155.746 223.084 155.59 223.071 155.45 223.046C155.311 223.024 155.186 222.991 155.076 222.944V221.77C155.148 221.795 155.226 221.816 155.311 221.833C155.395 221.85 155.482 221.859 155.571 221.859C155.727 221.859 155.871 221.795 156.002 221.668C156.138 221.537 156.263 221.332 156.377 221.052C156.491 220.773 156.595 220.405 156.688 219.948C156.781 219.487 156.866 218.928 156.942 218.272C157.018 217.612 157.086 216.84 157.145 215.955H161.88V222.982ZM165.518 215.955V218.78H168.806V215.955H170.304V222.982H168.806V219.948H165.518V222.982H164.02V215.955H165.518ZM175.236 215.822C175.862 215.822 176.4 215.951 176.848 216.209C177.297 216.467 177.642 216.833 177.883 217.307C178.124 217.781 178.245 218.348 178.245 219.008V219.808H173.554C173.571 220.49 173.753 221.014 174.1 221.383C174.451 221.751 174.942 221.935 175.572 221.935C176.021 221.935 176.423 221.892 176.778 221.808C177.138 221.719 177.508 221.59 177.889 221.421V222.633C177.538 222.798 177.18 222.919 176.816 222.995C176.452 223.071 176.017 223.109 175.509 223.109C174.819 223.109 174.212 222.976 173.687 222.709C173.167 222.438 172.758 222.036 172.462 221.503C172.17 220.97 172.024 220.308 172.024 219.516C172.024 218.729 172.157 218.061 172.424 217.51C172.69 216.96 173.065 216.541 173.547 216.254C174.03 215.966 174.593 215.822 175.236 215.822ZM175.236 216.945C174.766 216.945 174.385 217.098 174.093 217.403C173.806 217.707 173.636 218.154 173.585 218.742H176.785C176.78 218.391 176.721 218.08 176.607 217.809C176.497 217.538 176.328 217.326 176.099 217.174C175.875 217.022 175.587 216.945 175.236 216.945ZM181.425 215.955V218.78H184.713V215.955H186.211V222.982H184.713V219.948H181.425V222.982H179.927V215.955H181.425ZM189.778 215.955V219.542C189.778 219.656 189.774 219.802 189.766 219.98C189.761 220.153 189.753 220.335 189.74 220.526C189.728 220.712 189.715 220.883 189.702 221.04C189.689 221.196 189.679 221.313 189.67 221.389L193.206 215.955H195.021V222.982H193.593V219.434C193.593 219.248 193.597 219.032 193.606 218.786C193.619 218.541 193.631 218.304 193.644 218.075C193.661 217.847 193.672 217.673 193.676 217.555L190.153 222.982H188.344V215.955H189.778ZM199.966 215.822C200.593 215.822 201.13 215.951 201.579 216.209C202.027 216.467 202.372 216.833 202.613 217.307C202.854 217.781 202.975 218.348 202.975 219.008V219.808H198.284C198.301 220.49 198.483 221.014 198.83 221.383C199.181 221.751 199.672 221.935 200.303 221.935C200.751 221.935 201.153 221.892 201.509 221.808C201.868 221.719 202.239 221.59 202.62 221.421V222.633C202.268 222.798 201.911 222.919 201.547 222.995C201.183 223.071 200.747 223.109 200.239 223.109C199.549 223.109 198.942 222.976 198.417 222.709C197.897 222.438 197.489 222.036 197.192 221.503C196.9 220.97 196.754 220.308 196.754 219.516C196.754 218.729 196.888 218.061 197.154 217.51C197.421 216.96 197.795 216.541 198.278 216.254C198.76 215.966 199.323 215.822 199.966 215.822ZM199.966 216.945C199.497 216.945 199.116 217.098 198.824 217.403C198.536 217.707 198.367 218.154 198.316 218.742H201.515C201.511 218.391 201.452 218.08 201.337 217.809C201.227 217.538 201.058 217.326 200.83 217.174C200.605 217.022 200.318 216.945 199.966 216.945ZM126.41 234.453C126.41 235.037 126.333 235.555 126.181 236.008C126.029 236.461 125.807 236.844 125.515 237.157C125.223 237.466 124.871 237.703 124.461 237.868C124.05 238.029 123.587 238.109 123.071 238.109C122.588 238.109 122.146 238.029 121.744 237.868C121.342 237.703 120.993 237.466 120.697 237.157C120.405 236.844 120.178 236.461 120.018 236.008C119.857 235.555 119.776 235.037 119.776 234.453C119.776 233.678 119.91 233.022 120.176 232.485C120.447 231.943 120.832 231.531 121.332 231.247C121.831 230.964 122.425 230.822 123.115 230.822C123.763 230.822 124.334 230.964 124.829 231.247C125.324 231.531 125.711 231.943 125.991 232.485C126.27 233.027 126.41 233.683 126.41 234.453ZM121.312 234.453C121.312 234.965 121.374 235.403 121.497 235.767C121.624 236.131 121.818 236.41 122.081 236.605C122.343 236.795 122.681 236.89 123.096 236.89C123.511 236.89 123.849 236.795 124.112 236.605C124.374 236.41 124.567 236.131 124.689 235.767C124.812 235.403 124.874 234.965 124.874 234.453C124.874 233.941 124.812 233.507 124.689 233.152C124.567 232.792 124.374 232.519 124.112 232.333C123.849 232.142 123.509 232.047 123.09 232.047C122.472 232.047 122.021 232.254 121.738 232.669C121.454 233.084 121.312 233.678 121.312 234.453ZM127.724 233.767C127.724 232.747 127.836 231.88 128.06 231.165C128.284 230.45 128.638 229.876 129.12 229.445C129.603 229.013 130.229 228.719 130.999 228.562C131.498 228.448 132.006 228.351 132.522 228.27C133.039 228.19 133.555 228.112 134.071 228.035L134.274 229.349C134.033 229.379 133.775 229.415 133.5 229.457C133.225 229.495 132.948 229.536 132.668 229.578C132.393 229.62 132.129 229.665 131.875 229.711C131.625 229.753 131.401 229.796 131.202 229.838C130.804 229.923 130.468 230.062 130.193 230.257C129.922 230.447 129.71 230.727 129.558 231.095C129.406 231.463 129.315 231.954 129.285 232.568H129.368C129.482 232.394 129.641 232.221 129.844 232.047C130.047 231.874 130.292 231.73 130.58 231.615C130.872 231.497 131.204 231.438 131.577 231.438C132.161 231.438 132.656 231.56 133.062 231.806C133.472 232.051 133.784 232.407 133.995 232.872C134.211 233.338 134.319 233.898 134.319 234.554C134.319 235.337 134.179 235.993 133.9 236.522C133.625 237.047 133.24 237.443 132.745 237.709C132.25 237.976 131.672 238.109 131.012 238.109C130.504 238.109 130.047 238.014 129.641 237.823C129.239 237.633 128.894 237.354 128.606 236.986C128.322 236.613 128.104 236.158 127.952 235.621C127.8 235.079 127.724 234.461 127.724 233.767ZM131.113 236.884C131.452 236.884 131.744 236.812 131.989 236.668C132.239 236.524 132.431 236.292 132.567 235.97C132.707 235.648 132.776 235.223 132.776 234.694C132.776 234.042 132.658 233.53 132.421 233.158C132.188 232.781 131.803 232.593 131.266 232.593C130.936 232.593 130.633 232.667 130.358 232.815C130.083 232.963 129.85 233.137 129.66 233.336C129.469 233.53 129.334 233.702 129.253 233.85C129.253 234.235 129.281 234.607 129.336 234.967C129.395 235.327 129.493 235.653 129.628 235.945C129.768 236.232 129.958 236.461 130.199 236.63C130.44 236.799 130.745 236.884 131.113 236.884ZM136.737 237.982H135.074L137.036 235.113C136.769 235.028 136.519 234.904 136.287 234.738C136.058 234.569 135.872 234.349 135.728 234.078C135.584 233.803 135.512 233.469 135.512 233.075C135.512 232.39 135.758 231.865 136.249 231.501C136.739 231.137 137.381 230.955 138.172 230.955H141.358V237.982H139.867V235.265H138.451L136.737 237.982ZM136.972 233.088C136.972 233.444 137.105 233.714 137.372 233.901C137.639 234.083 138.003 234.174 138.464 234.174H139.867V232.079H138.248C137.804 232.079 137.48 232.176 137.277 232.371C137.074 232.561 136.972 232.8 136.972 233.088ZM145.668 230.822C146.185 230.822 146.648 230.892 147.059 231.031C147.473 231.167 147.801 231.372 148.042 231.647C148.284 231.922 148.404 232.265 148.404 232.675C148.404 233.099 148.282 233.437 148.036 233.691C147.795 233.941 147.467 234.121 147.052 234.231V234.288C147.344 234.36 147.609 234.463 147.846 234.599C148.083 234.73 148.271 234.908 148.411 235.132C148.555 235.352 148.626 235.636 148.626 235.983C148.626 236.376 148.51 236.734 148.277 237.055C148.049 237.377 147.698 237.633 147.224 237.823C146.75 238.014 146.147 238.109 145.415 238.109C145.063 238.109 144.729 238.09 144.412 238.052C144.098 238.018 143.813 237.969 143.555 237.906C143.297 237.838 143.072 237.758 142.882 237.665V236.383C143.174 236.522 143.527 236.649 143.942 236.763C144.357 236.873 144.801 236.928 145.275 236.928C145.626 236.928 145.944 236.897 146.227 236.833C146.515 236.765 146.741 236.655 146.906 236.503C147.076 236.351 147.16 236.148 147.16 235.894C147.16 235.661 147.086 235.468 146.938 235.316C146.79 235.164 146.568 235.052 146.271 234.98C145.975 234.904 145.601 234.865 145.148 234.865H144.31V233.767H145.046C145.668 233.767 146.155 233.7 146.506 233.564C146.862 233.424 147.04 233.183 147.04 232.841C147.04 232.553 146.915 232.337 146.665 232.193C146.415 232.049 146.032 231.977 145.516 231.977C145.161 231.977 144.809 232.017 144.462 232.098C144.115 232.174 143.768 232.284 143.421 232.428L142.952 231.33C143.337 231.173 143.749 231.05 144.189 230.962C144.63 230.869 145.123 230.822 145.668 230.822ZM152.994 230.822C153.882 230.822 154.553 231.019 155.006 231.412C155.463 231.806 155.691 232.419 155.691 233.253V237.982H154.631L154.346 236.986H154.295C154.096 237.239 153.891 237.449 153.679 237.614C153.468 237.779 153.222 237.902 152.943 237.982C152.668 238.067 152.331 238.109 151.934 238.109C151.515 238.109 151.14 238.033 150.81 237.881C150.48 237.724 150.22 237.487 150.029 237.17C149.839 236.852 149.744 236.45 149.744 235.964C149.744 235.24 150.012 234.696 150.55 234.332C151.091 233.968 151.908 233.767 153 233.729L154.219 233.685V233.317C154.219 232.83 154.104 232.483 153.876 232.276C153.652 232.068 153.334 231.965 152.924 231.965C152.573 231.965 152.232 232.015 151.902 232.117C151.572 232.218 151.25 232.343 150.937 232.491L150.455 231.438C150.797 231.256 151.187 231.108 151.623 230.993C152.063 230.879 152.52 230.822 152.994 230.822ZM154.212 234.624L153.305 234.656C152.56 234.681 152.037 234.808 151.737 235.037C151.436 235.265 151.286 235.578 151.286 235.976C151.286 236.323 151.39 236.577 151.597 236.738C151.805 236.895 152.077 236.973 152.416 236.973C152.932 236.973 153.36 236.827 153.698 236.535C154.041 236.239 154.212 235.805 154.212 235.234V234.624ZM163.086 232.13H160.776V237.982H159.291V232.13H156.993V230.955H163.086V232.13ZM167.244 230.822C167.87 230.822 168.408 230.951 168.856 231.209C169.305 231.467 169.65 231.833 169.891 232.307C170.132 232.781 170.253 233.348 170.253 234.008V234.808H165.562C165.579 235.49 165.761 236.014 166.108 236.383C166.459 236.751 166.95 236.935 167.581 236.935C168.029 236.935 168.431 236.892 168.787 236.808C169.146 236.719 169.517 236.59 169.897 236.421V237.633C169.546 237.798 169.189 237.919 168.825 237.995C168.461 238.071 168.025 238.109 167.517 238.109C166.827 238.109 166.22 237.976 165.695 237.709C165.175 237.438 164.766 237.036 164.47 236.503C164.178 235.97 164.032 235.308 164.032 234.516C164.032 233.729 164.166 233.061 164.432 232.51C164.699 231.96 165.073 231.541 165.556 231.254C166.038 230.966 166.601 230.822 167.244 230.822ZM167.244 231.945C166.774 231.945 166.394 232.098 166.102 232.403C165.814 232.707 165.645 233.154 165.594 233.742H168.793C168.789 233.391 168.729 233.08 168.615 232.809C168.505 232.538 168.336 232.326 168.107 232.174C167.883 232.022 167.595 231.945 167.244 231.945ZM177.718 237.982H176.213V232.123H174.265C174.18 233.19 174.074 234.102 173.947 234.859C173.82 235.617 173.662 236.234 173.471 236.713C173.281 237.187 173.046 237.534 172.767 237.754C172.487 237.974 172.151 238.084 171.757 238.084C171.584 238.084 171.427 238.071 171.288 238.046C171.148 238.024 171.023 237.991 170.913 237.944V236.77C170.985 236.795 171.063 236.816 171.148 236.833C171.233 236.85 171.319 236.859 171.408 236.859C171.565 236.859 171.709 236.795 171.84 236.668C171.975 236.537 172.1 236.332 172.214 236.052C172.329 235.773 172.432 235.405 172.525 234.948C172.618 234.487 172.703 233.928 172.779 233.272C172.855 232.612 172.923 231.84 172.982 230.955H177.718V237.982ZM181.355 233.761H183.101C183.761 233.761 184.307 233.837 184.738 233.989C185.174 234.138 185.5 234.362 185.716 234.662C185.932 234.963 186.04 235.339 186.04 235.792C186.04 236.237 185.938 236.624 185.735 236.954C185.532 237.28 185.214 237.534 184.783 237.716C184.355 237.893 183.797 237.982 183.107 237.982H179.857V230.955H181.355V233.761ZM184.542 235.83C184.542 235.479 184.41 235.231 184.148 235.088C183.886 234.939 183.511 234.865 183.024 234.865H181.355V236.884H183.037C183.481 236.884 183.843 236.804 184.123 236.643C184.402 236.478 184.542 236.207 184.542 235.83ZM190.521 238.109C189.857 238.109 189.281 237.98 188.794 237.722C188.308 237.464 187.933 237.068 187.671 236.535C187.409 236.002 187.277 235.325 187.277 234.504C187.277 233.649 187.421 232.951 187.709 232.409C187.997 231.867 188.395 231.467 188.902 231.209C189.414 230.951 190 230.822 190.661 230.822C191.08 230.822 191.458 230.864 191.797 230.949C192.14 231.029 192.43 231.129 192.667 231.247L192.222 232.441C191.964 232.335 191.7 232.246 191.429 232.174C191.158 232.102 190.898 232.066 190.648 232.066C190.237 232.066 189.895 232.157 189.62 232.339C189.349 232.521 189.146 232.792 189.01 233.152C188.879 233.511 188.813 233.958 188.813 234.491C188.813 235.007 188.881 235.443 189.017 235.799C189.152 236.15 189.353 236.416 189.62 236.598C189.886 236.776 190.214 236.865 190.604 236.865C190.989 236.865 191.333 236.818 191.638 236.725C191.943 236.632 192.231 236.512 192.501 236.363V237.658C192.235 237.811 191.949 237.923 191.645 237.995C191.34 238.071 190.965 238.109 190.521 238.109ZM199.458 232.13H197.148V237.982H195.663V232.13H193.365V230.955H199.458V232.13ZM206.727 232.758C206.727 233.164 206.602 233.496 206.352 233.755C206.107 234.008 205.768 234.176 205.336 234.256V234.307C205.798 234.366 206.183 234.529 206.492 234.796C206.801 235.062 206.955 235.432 206.955 235.906C206.955 236.308 206.854 236.666 206.65 236.979C206.451 237.288 206.134 237.534 205.698 237.716C205.267 237.893 204.702 237.982 204.003 237.982H200.817V230.955H203.991C204.515 230.955 204.983 231.012 205.394 231.127C205.808 231.241 206.134 231.429 206.371 231.692C206.608 231.954 206.727 232.309 206.727 232.758ZM205.4 235.856C205.4 235.509 205.267 235.259 205 235.107C204.738 234.954 204.353 234.878 203.845 234.878H202.315V236.884H203.876C204.35 236.884 204.723 236.806 204.994 236.649C205.264 236.488 205.4 236.224 205.4 235.856ZM205.209 232.891C205.209 232.616 205.106 232.413 204.898 232.282C204.691 232.147 204.365 232.079 203.921 232.079H202.315V233.78H203.718C204.209 233.78 204.579 233.71 204.829 233.57C205.083 233.427 205.209 233.2 205.209 232.891Z" fill="#5B5B5B"/>
</svg>
