<svg width="325" height="325" viewBox="0 0 325 325" fill="none" xmlns="http://www.w3.org/2000/svg">
<path d="M47.5832 162.5L105.042 62.9791L219.958 62.9791L277.417 162.5L219.958 262.021L105.042 262.021L47.5832 162.5Z" stroke="#FF4500" stroke-width="7"/>
<path d="M130.365 157.374V182.302H197.344V107.266L179.214 92.9138H130.365V161.151" fill="#FF4500"/>
<path d="M130.365 157.374V182.302H197.344V107.266L179.214 92.9138H130.365V161.151" stroke="#FF4500" stroke-width="1.6162" stroke-miterlimit="10"/>
<path d="M137.293 111.421L142.329 120.234L157.437 98.8308" stroke="white" stroke-width="1.6162" stroke-miterlimit="10"/>
<path d="M137.293 136.6L142.329 145.413L157.437 124.01" stroke="white" stroke-width="1.6162" stroke-miterlimit="10"/>
<path d="M137.293 161.78L142.329 170.593L157.437 149.19" stroke="white" stroke-width="1.6162" stroke-miterlimit="10"/>
<path d="M162.469 112.68H186.39" stroke="white" stroke-width="1.6162" stroke-miterlimit="10"/>
<path d="M162.469 129.047H183.872" stroke="white" stroke-width="1.6162" stroke-miterlimit="10"/>
<path d="M162.469 136.601H176.318" stroke="white" stroke-width="1.6162" stroke-miterlimit="10"/>
<path d="M162.469 156.745H183.872" stroke="white" stroke-width="1.6162" stroke-miterlimit="10"/>
<path d="M162.469 161.781H180.095" stroke="white" stroke-width="1.6162" stroke-miterlimit="10"/>
<path d="M162.469 168.076H175.059" stroke="white" stroke-width="1.6162" stroke-miterlimit="10"/>
<path d="M178.604 93L178 107.088L196.867 107.896" fill="white"/>
<path d="M178.604 93L178 107.088L196.867 107.896" stroke="#FF4500" stroke-width="1.6162" stroke-miterlimit="10"/>
<path d="M120.445 213.702H123.207C124.404 213.702 125.308 213.875 125.917 214.222C126.526 214.569 126.831 215.168 126.831 216.019C126.831 216.374 126.768 216.696 126.641 216.984C126.518 217.267 126.338 217.502 126.101 217.688C125.864 217.87 125.572 217.993 125.225 218.056V218.12C125.585 218.183 125.904 218.295 126.184 218.456C126.467 218.617 126.689 218.848 126.85 219.148C127.015 219.449 127.098 219.838 127.098 220.316C127.098 220.883 126.962 221.366 126.691 221.763C126.425 222.161 126.042 222.464 125.542 222.671C125.047 222.878 124.459 222.982 123.778 222.982H120.445V213.702ZM121.969 217.53H123.429C124.118 217.53 124.597 217.417 124.863 217.193C125.13 216.969 125.263 216.641 125.263 216.209C125.263 215.769 125.104 215.452 124.787 215.257C124.474 215.062 123.975 214.965 123.289 214.965H121.969V217.53ZM121.969 218.761V221.706H123.575C124.286 221.706 124.785 221.569 125.073 221.294C125.361 221.019 125.504 220.646 125.504 220.177C125.504 219.889 125.439 219.639 125.308 219.427C125.181 219.216 124.971 219.053 124.679 218.939C124.387 218.82 123.994 218.761 123.499 218.761H121.969ZM128.862 222.982V215.955H130.36V218.761H131.776C132.436 218.761 132.98 218.837 133.407 218.99C133.835 219.138 134.152 219.362 134.359 219.662C134.567 219.963 134.67 220.339 134.67 220.792C134.67 221.237 134.571 221.624 134.372 221.954C134.173 222.28 133.862 222.534 133.439 222.716C133.016 222.893 132.461 222.982 131.776 222.982H128.862ZM130.36 221.884H131.674C132.123 221.884 132.485 221.804 132.76 221.643C133.039 221.478 133.179 221.207 133.179 220.83C133.179 220.479 133.05 220.232 132.792 220.088C132.538 219.94 132.165 219.865 131.674 219.865H130.36V221.884ZM135.756 222.982V215.955H137.254V222.982H135.756ZM145.525 215.955V222.982H144.021V217.136H140.885V222.982H139.387V215.955H145.525ZM153.885 219.453C153.885 220.037 153.809 220.555 153.656 221.008C153.504 221.461 153.282 221.844 152.99 222.157C152.698 222.466 152.347 222.703 151.936 222.868C151.526 223.029 151.062 223.109 150.546 223.109C150.063 223.109 149.621 223.029 149.219 222.868C148.817 222.703 148.468 222.466 148.172 222.157C147.88 221.844 147.653 221.461 147.493 221.008C147.332 220.555 147.251 220.037 147.251 219.453C147.251 218.678 147.385 218.023 147.651 217.485C147.922 216.943 148.307 216.531 148.807 216.247C149.306 215.964 149.901 215.822 150.59 215.822C151.238 215.822 151.809 215.964 152.304 216.247C152.799 216.531 153.187 216.943 153.466 217.485C153.745 218.027 153.885 218.683 153.885 219.453ZM148.788 219.453C148.788 219.965 148.849 220.403 148.972 220.767C149.099 221.131 149.293 221.41 149.556 221.605C149.818 221.795 150.157 221.89 150.571 221.89C150.986 221.89 151.325 221.795 151.587 221.605C151.849 221.41 152.042 221.131 152.165 220.767C152.287 220.403 152.349 219.965 152.349 219.453C152.349 218.941 152.287 218.507 152.165 218.152C152.042 217.792 151.849 217.519 151.587 217.333C151.325 217.142 150.984 217.047 150.565 217.047C149.947 217.047 149.496 217.254 149.213 217.669C148.929 218.084 148.788 218.678 148.788 219.453ZM161.381 222.982H159.877V217.123H157.928C157.844 218.19 157.738 219.102 157.611 219.859C157.484 220.617 157.325 221.234 157.135 221.713C156.944 222.187 156.709 222.534 156.43 222.754C156.151 222.974 155.814 223.084 155.421 223.084C155.247 223.084 155.091 223.071 154.951 223.046C154.812 223.024 154.687 222.991 154.577 222.944V221.77C154.649 221.795 154.727 221.816 154.812 221.833C154.896 221.85 154.983 221.859 155.072 221.859C155.228 221.859 155.372 221.795 155.503 221.668C155.639 221.537 155.764 221.332 155.878 221.052C155.992 220.773 156.096 220.405 156.189 219.948C156.282 219.487 156.367 218.928 156.443 218.272C156.519 217.612 156.587 216.84 156.646 215.955H161.381V222.982ZM165.019 215.955V218.78H168.307V215.955H169.805V222.982H168.307V219.948H165.019V222.982H163.521V215.955H165.019ZM174.737 215.822C175.363 215.822 175.901 215.951 176.349 216.209C176.798 216.467 177.143 216.833 177.384 217.307C177.625 217.781 177.746 218.348 177.746 219.009V219.808H173.055C173.072 220.49 173.254 221.014 173.601 221.383C173.952 221.751 174.443 221.935 175.073 221.935C175.522 221.935 175.924 221.892 176.279 221.808C176.639 221.719 177.009 221.59 177.39 221.421V222.633C177.039 222.798 176.681 222.919 176.317 222.995C175.953 223.071 175.518 223.109 175.01 223.109C174.32 223.109 173.713 222.976 173.188 222.709C172.667 222.438 172.259 222.036 171.963 221.503C171.671 220.97 171.525 220.308 171.525 219.516C171.525 218.729 171.658 218.061 171.925 217.51C172.191 216.96 172.566 216.541 173.048 216.254C173.531 215.966 174.094 215.822 174.737 215.822ZM174.737 216.946C174.267 216.946 173.886 217.098 173.594 217.403C173.306 217.707 173.137 218.154 173.086 218.742H176.286C176.281 218.391 176.222 218.08 176.108 217.809C175.998 217.538 175.829 217.326 175.6 217.174C175.376 217.022 175.088 216.946 174.737 216.946ZM180.926 215.955V218.78H184.214V215.955H185.712V222.982H184.214V219.948H180.926V222.982H179.428V215.955H180.926ZM189.279 215.955V219.542C189.279 219.656 189.275 219.802 189.267 219.98C189.262 220.153 189.254 220.335 189.241 220.526C189.229 220.712 189.216 220.883 189.203 221.04C189.19 221.196 189.18 221.313 189.171 221.389L192.707 215.955H194.522V222.982H193.094V219.434C193.094 219.248 193.098 219.032 193.107 218.786C193.12 218.541 193.132 218.304 193.145 218.075C193.162 217.847 193.173 217.673 193.177 217.555L189.654 222.982H187.845V215.955H189.279ZM199.467 215.822C200.094 215.822 200.631 215.951 201.08 216.209C201.528 216.467 201.873 216.833 202.114 217.307C202.355 217.781 202.476 218.348 202.476 219.009V219.808H197.785C197.802 220.49 197.984 221.014 198.331 221.383C198.682 221.751 199.173 221.935 199.804 221.935C200.252 221.935 200.654 221.892 201.01 221.808C201.369 221.719 201.74 221.59 202.121 221.421V222.633C201.769 222.798 201.412 222.919 201.048 222.995C200.684 223.071 200.248 223.109 199.74 223.109C199.05 223.109 198.443 222.976 197.918 222.709C197.398 222.438 196.99 222.036 196.693 221.503C196.401 220.97 196.255 220.308 196.255 219.516C196.255 218.729 196.389 218.061 196.655 217.51C196.922 216.96 197.296 216.541 197.779 216.254C198.261 215.966 198.824 215.822 199.467 215.822ZM199.467 216.946C198.998 216.946 198.617 217.098 198.325 217.403C198.037 217.707 197.868 218.154 197.817 218.742H201.016C201.012 218.391 200.953 218.08 200.838 217.809C200.728 217.538 200.559 217.326 200.331 217.174C200.106 217.022 199.819 216.946 199.467 216.946ZM125.911 234.453C125.911 235.037 125.834 235.555 125.682 236.008C125.53 236.461 125.308 236.844 125.016 237.157C124.724 237.466 124.372 237.703 123.962 237.868C123.551 238.029 123.088 238.109 122.572 238.109C122.089 238.109 121.647 238.029 121.245 237.868C120.843 237.703 120.494 237.466 120.198 237.157C119.906 236.844 119.679 236.461 119.519 236.008C119.358 235.555 119.277 235.037 119.277 234.453C119.277 233.678 119.411 233.023 119.677 232.485C119.948 231.943 120.333 231.531 120.833 231.247C121.332 230.964 121.926 230.822 122.616 230.822C123.264 230.822 123.835 230.964 124.33 231.247C124.825 231.531 125.212 231.943 125.492 232.485C125.771 233.027 125.911 233.683 125.911 234.453ZM120.813 234.453C120.813 234.965 120.875 235.403 120.998 235.767C121.125 236.131 121.319 236.41 121.582 236.605C121.844 236.795 122.182 236.89 122.597 236.89C123.012 236.89 123.35 236.795 123.613 236.605C123.875 236.41 124.068 236.131 124.19 235.767C124.313 235.403 124.375 234.965 124.375 234.453C124.375 233.941 124.313 233.507 124.19 233.152C124.068 232.792 123.875 232.519 123.613 232.333C123.35 232.142 123.01 232.047 122.591 232.047C121.973 232.047 121.522 232.254 121.239 232.669C120.955 233.084 120.813 233.678 120.813 234.453ZM127.225 233.767C127.225 232.747 127.337 231.88 127.561 231.165C127.785 230.45 128.139 229.876 128.621 229.445C129.104 229.013 129.73 228.719 130.5 228.562C130.999 228.448 131.507 228.351 132.023 228.27C132.54 228.19 133.056 228.112 133.572 228.035L133.775 229.349C133.534 229.379 133.276 229.415 133.001 229.457C132.726 229.495 132.449 229.536 132.169 229.578C131.894 229.62 131.63 229.665 131.376 229.711C131.126 229.753 130.902 229.796 130.703 229.838C130.305 229.923 129.969 230.062 129.694 230.257C129.423 230.448 129.211 230.727 129.059 231.095C128.907 231.463 128.816 231.954 128.786 232.568H128.869C128.983 232.394 129.142 232.221 129.345 232.047C129.548 231.874 129.793 231.73 130.081 231.615C130.373 231.497 130.705 231.438 131.078 231.438C131.662 231.438 132.157 231.56 132.563 231.806C132.973 232.051 133.285 232.407 133.496 232.872C133.712 233.338 133.82 233.899 133.82 234.554C133.82 235.337 133.68 235.993 133.401 236.522C133.126 237.047 132.741 237.443 132.246 237.709C131.75 237.976 131.173 238.109 130.513 238.109C130.005 238.109 129.548 238.014 129.142 237.823C128.74 237.633 128.395 237.354 128.107 236.986C127.823 236.613 127.605 236.158 127.453 235.621C127.301 235.079 127.225 234.461 127.225 233.767ZM130.614 236.884C130.953 236.884 131.245 236.812 131.49 236.668C131.74 236.524 131.932 236.292 132.068 235.97C132.208 235.648 132.277 235.223 132.277 234.694C132.277 234.042 132.159 233.53 131.922 233.158C131.689 232.781 131.304 232.593 130.767 232.593C130.437 232.593 130.134 232.667 129.859 232.815C129.584 232.963 129.351 233.137 129.161 233.336C128.97 233.53 128.835 233.702 128.754 233.85C128.754 234.235 128.782 234.607 128.837 234.967C128.896 235.327 128.993 235.653 129.129 235.945C129.269 236.232 129.459 236.461 129.7 236.63C129.941 236.799 130.246 236.884 130.614 236.884ZM136.238 237.982H134.575L136.537 235.113C136.27 235.028 136.02 234.904 135.788 234.739C135.559 234.569 135.373 234.349 135.229 234.078C135.085 233.803 135.013 233.469 135.013 233.075C135.013 232.39 135.259 231.865 135.75 231.501C136.24 231.137 136.882 230.955 137.673 230.955H140.859V237.982H139.368V235.265H137.952L136.238 237.982ZM136.473 233.088C136.473 233.444 136.606 233.714 136.873 233.901C137.14 234.083 137.504 234.174 137.965 234.174H139.368V232.079H137.749C137.305 232.079 136.981 232.176 136.778 232.371C136.575 232.561 136.473 232.8 136.473 233.088ZM145.169 230.822C145.686 230.822 146.149 230.892 146.56 231.031C146.974 231.167 147.302 231.372 147.543 231.647C147.785 231.922 147.905 232.265 147.905 232.676C147.905 233.099 147.783 233.437 147.537 233.691C147.296 233.941 146.968 234.121 146.553 234.231V234.288C146.845 234.36 147.11 234.463 147.347 234.599C147.584 234.73 147.772 234.908 147.912 235.132C148.056 235.352 148.127 235.636 148.127 235.983C148.127 236.376 148.011 236.734 147.778 237.055C147.55 237.377 147.199 237.633 146.725 237.823C146.251 238.014 145.648 238.109 144.916 238.109C144.564 238.109 144.23 238.09 143.913 238.052C143.599 238.018 143.314 237.969 143.056 237.906C142.798 237.838 142.573 237.758 142.383 237.665V236.383C142.675 236.522 143.028 236.649 143.443 236.763C143.858 236.873 144.302 236.928 144.776 236.928C145.127 236.928 145.444 236.897 145.728 236.833C146.016 236.766 146.242 236.656 146.407 236.503C146.576 236.351 146.661 236.148 146.661 235.894C146.661 235.661 146.587 235.469 146.439 235.316C146.291 235.164 146.069 235.052 145.772 234.98C145.476 234.904 145.102 234.865 144.649 234.865H143.811V233.767H144.547C145.169 233.767 145.656 233.7 146.007 233.564C146.363 233.425 146.541 233.183 146.541 232.841C146.541 232.553 146.416 232.337 146.166 232.193C145.916 232.049 145.533 231.977 145.017 231.977C144.662 231.977 144.31 232.017 143.963 232.098C143.616 232.174 143.269 232.284 142.922 232.428L142.453 231.33C142.838 231.173 143.25 231.051 143.69 230.962C144.131 230.869 144.624 230.822 145.169 230.822ZM152.495 230.822C153.383 230.822 154.054 231.019 154.507 231.412C154.964 231.806 155.192 232.42 155.192 233.253V237.982H154.132L153.847 236.986H153.796C153.597 237.24 153.392 237.449 153.18 237.614C152.969 237.779 152.723 237.902 152.444 237.982C152.169 238.067 151.832 238.109 151.435 238.109C151.016 238.109 150.641 238.033 150.311 237.881C149.981 237.724 149.721 237.487 149.53 237.17C149.34 236.852 149.245 236.45 149.245 235.964C149.245 235.24 149.513 234.696 150.051 234.332C150.592 233.968 151.409 233.767 152.501 233.729L153.72 233.685V233.317C153.72 232.83 153.605 232.483 153.377 232.276C153.153 232.068 152.835 231.965 152.425 231.965C152.074 231.965 151.733 232.015 151.403 232.117C151.073 232.219 150.751 232.343 150.438 232.491L149.956 231.438C150.298 231.256 150.688 231.108 151.124 230.993C151.564 230.879 152.021 230.822 152.495 230.822ZM153.713 234.624L152.806 234.656C152.061 234.681 151.538 234.808 151.238 235.037C150.937 235.265 150.787 235.579 150.787 235.976C150.787 236.323 150.891 236.577 151.098 236.738C151.306 236.895 151.578 236.973 151.917 236.973C152.433 236.973 152.861 236.827 153.199 236.535C153.542 236.239 153.713 235.805 153.713 235.234V234.624ZM162.587 232.13H160.277V237.982H158.792V232.13H156.494V230.955H162.587V232.13ZM166.745 230.822C167.371 230.822 167.909 230.951 168.357 231.209C168.806 231.467 169.151 231.833 169.392 232.307C169.633 232.781 169.754 233.348 169.754 234.009V234.808H165.063C165.08 235.49 165.262 236.014 165.609 236.383C165.96 236.751 166.451 236.935 167.082 236.935C167.53 236.935 167.932 236.892 168.288 236.808C168.647 236.719 169.018 236.59 169.398 236.421V237.633C169.047 237.798 168.69 237.919 168.326 237.995C167.962 238.071 167.526 238.109 167.018 238.109C166.328 238.109 165.721 237.976 165.196 237.709C164.676 237.438 164.267 237.036 163.971 236.503C163.679 235.97 163.533 235.308 163.533 234.516C163.533 233.729 163.667 233.061 163.933 232.51C164.2 231.96 164.574 231.541 165.057 231.254C165.539 230.966 166.102 230.822 166.745 230.822ZM166.745 231.946C166.275 231.946 165.895 232.098 165.603 232.403C165.315 232.707 165.146 233.154 165.095 233.742H168.294C168.29 233.391 168.23 233.08 168.116 232.809C168.006 232.538 167.837 232.326 167.608 232.174C167.384 232.022 167.096 231.946 166.745 231.946ZM177.219 237.982H175.714V232.123H173.766C173.681 233.19 173.575 234.102 173.448 234.859C173.321 235.617 173.163 236.234 172.972 236.713C172.782 237.187 172.547 237.534 172.268 237.754C171.988 237.974 171.652 238.084 171.258 238.084C171.085 238.084 170.928 238.071 170.789 238.046C170.649 238.024 170.524 237.991 170.414 237.944V236.77C170.486 236.795 170.564 236.816 170.649 236.833C170.734 236.85 170.82 236.859 170.909 236.859C171.066 236.859 171.21 236.795 171.341 236.668C171.476 236.537 171.601 236.332 171.715 236.052C171.83 235.773 171.933 235.405 172.026 234.948C172.119 234.487 172.204 233.928 172.28 233.272C172.356 232.612 172.424 231.84 172.483 230.955H177.219V237.982ZM180.856 233.761H182.602C183.262 233.761 183.808 233.837 184.239 233.99C184.675 234.138 185.001 234.362 185.217 234.662C185.433 234.963 185.541 235.339 185.541 235.792C185.541 236.237 185.439 236.624 185.236 236.954C185.033 237.28 184.715 237.534 184.284 237.716C183.856 237.893 183.298 237.982 182.608 237.982H179.358V230.955H180.856V233.761ZM184.042 235.83C184.042 235.479 183.911 235.232 183.649 235.088C183.387 234.94 183.012 234.865 182.525 234.865H180.856V236.884H182.538C182.982 236.884 183.344 236.804 183.624 236.643C183.903 236.478 184.042 236.207 184.042 235.83ZM190.022 238.109C189.358 238.109 188.782 237.98 188.295 237.722C187.809 237.464 187.434 237.068 187.172 236.535C186.91 236.002 186.778 235.325 186.778 234.504C186.778 233.649 186.922 232.951 187.21 232.409C187.498 231.867 187.896 231.467 188.403 231.209C188.915 230.951 189.501 230.822 190.162 230.822C190.581 230.822 190.959 230.864 191.298 230.949C191.641 231.029 191.931 231.129 192.167 231.247L191.723 232.441C191.465 232.335 191.201 232.246 190.93 232.174C190.659 232.102 190.399 232.066 190.149 232.066C189.738 232.066 189.396 232.157 189.121 232.339C188.85 232.521 188.647 232.792 188.511 233.152C188.38 233.511 188.314 233.958 188.314 234.491C188.314 235.007 188.382 235.443 188.518 235.799C188.653 236.15 188.854 236.416 189.121 236.598C189.387 236.776 189.715 236.865 190.104 236.865C190.49 236.865 190.834 236.818 191.139 236.725C191.444 236.632 191.732 236.512 192.002 236.364V237.658C191.736 237.811 191.45 237.923 191.146 237.995C190.841 238.071 190.466 238.109 190.022 238.109ZM198.959 232.13H196.649V237.982H195.164V232.13H192.866V230.955H198.959V232.13ZM206.228 232.758C206.228 233.164 206.103 233.497 205.853 233.755C205.608 234.009 205.269 234.176 204.837 234.256V234.307C205.299 234.366 205.684 234.529 205.993 234.796C206.302 235.062 206.456 235.433 206.456 235.906C206.456 236.309 206.354 236.666 206.151 236.979C205.952 237.288 205.635 237.534 205.199 237.716C204.768 237.893 204.203 237.982 203.504 237.982H200.318V230.955H203.492C204.016 230.955 204.484 231.012 204.895 231.127C205.309 231.241 205.635 231.429 205.872 231.692C206.109 231.954 206.228 232.309 206.228 232.758ZM204.901 235.856C204.901 235.509 204.768 235.259 204.501 235.107C204.239 234.954 203.854 234.878 203.346 234.878H201.816V236.884H203.377C203.851 236.884 204.224 236.806 204.495 236.649C204.765 236.488 204.901 236.224 204.901 235.856ZM204.71 232.891C204.71 232.616 204.607 232.413 204.399 232.282C204.192 232.147 203.866 232.079 203.422 232.079H201.816V233.78H203.219C203.71 233.78 204.08 233.71 204.33 233.571C204.583 233.427 204.71 233.2 204.71 232.891Z" fill="#5B5B5B"/>
</svg>
