<svg width="106" height="106" viewBox="0 0 106 106" fill="none" xmlns="http://www.w3.org/2000/svg">
<g id="&#208;&#157;&#208;&#176;&#208;&#180;&#209;&#145;&#208;&#182;&#208;&#189;&#209;&#139;&#208;&#185; &#208;&#191;&#208;&#190;&#209;&#129;&#209;&#130;&#208;&#176;&#208;&#178;&#209;&#137;&#208;&#184;&#208;&#186; 1" clip-path="url(#clip0_349_6858)">
<path id="Vector" d="M15.9185 19.561L24.2278 21.4495L23.3465 13.0142L31.1523 16.4135L32.0336 7.85236L38.9581 12.7624L41.476 4.57898L47.3933 10.748L51.2962 3.19409L55.9545 10.3703L61.3681 3.82359L64.3897 11.7552L70.9365 6.34157L72.4473 14.6509L80.0012 10.6221L79.7494 19.1833L87.9329 16.6653L86.1703 24.9747L94.6055 24.0934L91.2063 31.8991L99.6415 32.7804L94.8573 39.7049L103.041 42.2229L96.8717 48.1401L104.426 52.043L97.1235 56.7013L103.796 62.1149L95.8645 65.1365L101.278 71.8092L92.8429 73.1941L96.9976 80.748L88.4365 80.6221L90.9545 88.6797L82.5192 86.9171L83.4005 95.3523L75.5947 91.9531L74.8393 100.514L67.789 95.6041L65.3969 103.788L59.4796 97.6185L55.4509 105.173L50.9185 97.8703L45.5048 104.543L42.3573 96.6113L35.8106 102.025L34.2998 93.5898L26.8717 97.7444L26.9976 89.1833L18.8142 91.7013L20.7027 83.3919L12.1415 84.2732L15.6667 76.3416L7.10554 75.5862L12.0156 68.6617L3.83216 66.1437L10.0012 60.2265L2.44727 56.1977L9.62352 51.6653L3.07676 46.2516L11.0084 43.2301L5.46885 36.5574L13.9041 35.1725L9.87532 27.6186L18.4365 27.7444L15.9185 19.561Z" fill="#FF4500"/>
<path id="Vector_2" d="M53.3106 94.9744C76.1172 94.9744 94.6056 76.4861 94.6056 53.6795C94.6056 30.8729 76.1172 12.3845 53.3106 12.3845C30.504 12.3845 12.0156 30.8729 12.0156 53.6795C12.0156 76.4861 30.504 94.9744 53.3106 94.9744Z" fill="white" stroke="#FF4500" stroke-width="1.6162" stroke-miterlimit="10"/>
<path id="Vector_3" d="M53.3159 27.2402L59.9886 47.51H81.2656L64.0174 59.9741L70.5641 80.2438L53.3159 67.7798L36.1936 80.2438L42.7404 59.9741L25.4922 47.51H46.7692L53.3159 27.2402Z" fill="#FF4500"/>
</g>
<defs>
<clipPath id="clip0_349_6858">
<rect width="105" height="105" fill="white" transform="translate(0.556641 0.927734)"/>
</clipPath>
</defs>
</svg>
