<svg width="326" height="325" viewBox="0 0 326 325" fill="none" xmlns="http://www.w3.org/2000/svg">
<path d="M46.3511 162.5L104.676 61.4791L221.324 61.4791L279.649 162.5L221.324 263.521L104.676 263.521L46.3511 162.5Z" stroke="#FF4500" stroke-width="4"/>
<g clip-path="url(#clip0_49_1543)">
<path d="M162.811 178.974C185.617 178.974 204.106 160.486 204.106 137.68C204.106 114.873 185.617 96.3846 162.811 96.3846C140.004 96.3846 121.516 114.873 121.516 137.68C121.516 160.486 140.004 178.974 162.811 178.974Z" stroke="#FF4500" stroke-width="1.6162" stroke-miterlimit="10"/>
<path d="M162.817 111.24L169.49 131.51H190.767L173.518 143.974L180.065 164.244L162.817 151.78L145.695 164.244L152.241 143.974L134.993 131.51H156.27L162.817 111.24Z" stroke="#FF4500" stroke-width="1.6162" stroke-miterlimit="10"/>
<path d="M125.419 103.561L133.729 105.45L132.848 97.0143L140.653 100.414L141.535 91.8524L148.459 96.7625L150.977 88.579L156.894 94.7481L160.797 87.1942L165.455 94.3704L170.869 87.8236L173.891 95.7553L180.437 90.3416L181.948 98.651L189.502 94.6222L189.25 103.183L197.434 100.665L195.671 108.975L204.107 108.093L200.707 115.899L209.142 116.78L204.358 123.705L212.542 126.223L206.373 132.14L213.927 136.043L206.624 140.701L213.297 146.115L205.366 149.137L210.779 155.809L202.344 157.194L206.499 164.748L197.937 164.622L200.455 172.68L192.02 170.917L192.901 179.352L185.096 175.953L184.34 184.514L177.29 179.604L174.898 187.788L168.981 181.619L164.952 189.173L160.419 181.87L155.006 188.543L151.858 180.611L145.312 186.025L143.801 177.59L136.373 181.745L136.499 173.183L128.315 175.701L130.204 167.392L121.642 168.273L125.168 160.342L116.607 159.586L121.517 152.662L113.333 150.144L119.502 144.227L111.948 140.198L119.125 135.665L112.578 130.252L120.509 127.23L114.97 120.557L123.405 119.173L119.376 111.619L127.937 111.745L125.419 103.561Z" stroke="#FF4500" stroke-width="1.6162" stroke-miterlimit="10"/>
</g>
<path d="M135.549 222.928H134.032V218.738H129.753V222.928H128.23V213.647H129.753V217.443H134.032V213.647H135.549V222.928ZM140.608 215.768C141.496 215.768 142.167 215.964 142.62 216.358C143.077 216.751 143.306 217.365 143.306 218.199V222.928H142.246L141.96 221.931H141.909C141.71 222.185 141.505 222.395 141.293 222.56C141.082 222.725 140.836 222.847 140.557 222.928C140.282 223.012 139.946 223.055 139.548 223.055C139.129 223.055 138.754 222.979 138.424 222.826C138.094 222.67 137.834 222.433 137.643 222.115C137.453 221.798 137.358 221.396 137.358 220.909C137.358 220.186 137.627 219.642 138.164 219.278C138.706 218.914 139.522 218.713 140.614 218.675L141.833 218.63V218.262C141.833 217.776 141.719 217.429 141.49 217.221C141.266 217.014 140.948 216.91 140.538 216.91C140.187 216.91 139.846 216.961 139.516 217.062C139.186 217.164 138.864 217.289 138.551 217.437L138.069 216.383C138.412 216.201 138.801 216.053 139.237 215.939C139.677 215.825 140.134 215.768 140.608 215.768ZM141.827 219.57L140.919 219.602C140.174 219.627 139.651 219.754 139.351 219.982C139.051 220.211 138.9 220.524 138.9 220.922C138.9 221.269 139.004 221.523 139.211 221.684C139.419 221.84 139.692 221.918 140.03 221.918C140.546 221.918 140.974 221.772 141.312 221.48C141.655 221.184 141.827 220.75 141.827 220.179V219.57ZM151.132 215.901V221.772H152.148V225.403H150.77V222.928H145.921V225.403H144.543V221.772H145.115C145.47 221.256 145.766 220.681 146.003 220.046C146.245 219.411 146.431 218.743 146.562 218.04C146.697 217.333 146.782 216.62 146.816 215.901H151.132ZM149.653 217.043H148.098C148.047 217.615 147.961 218.184 147.838 218.751C147.715 219.314 147.556 219.853 147.362 220.37C147.171 220.882 146.943 221.349 146.676 221.772H149.653V217.043ZM156.255 215.768C156.881 215.768 157.419 215.897 157.867 216.155C158.316 216.413 158.661 216.779 158.902 217.253C159.143 217.727 159.264 218.294 159.264 218.954V219.754H154.573C154.59 220.435 154.772 220.96 155.119 221.328C155.47 221.696 155.961 221.88 156.591 221.88C157.04 221.88 157.442 221.838 157.797 221.753C158.157 221.665 158.527 221.535 158.908 221.366V222.579C158.557 222.744 158.199 222.864 157.835 222.94C157.471 223.017 157.036 223.055 156.528 223.055C155.838 223.055 155.231 222.921 154.706 222.655C154.185 222.384 153.777 221.982 153.481 221.449C153.189 220.916 153.043 220.253 153.043 219.462C153.043 218.675 153.176 218.006 153.443 217.456C153.709 216.906 154.084 216.487 154.566 216.199C155.049 215.911 155.612 215.768 156.255 215.768ZM156.255 216.891C155.785 216.891 155.404 217.043 155.112 217.348C154.824 217.653 154.655 218.099 154.604 218.688H157.804C157.799 218.336 157.74 218.025 157.626 217.754C157.516 217.484 157.347 217.272 157.118 217.12C156.894 216.967 156.606 216.891 156.255 216.891ZM154.179 214.041C154.179 213.787 154.249 213.603 154.389 213.489C154.528 213.37 154.7 213.311 154.903 213.311C155.106 213.311 155.279 213.37 155.423 213.489C155.571 213.603 155.645 213.787 155.645 214.041C155.645 214.286 155.571 214.471 155.423 214.593C155.279 214.716 155.106 214.777 154.903 214.777C154.7 214.777 154.528 214.716 154.389 214.593C154.249 214.471 154.179 214.286 154.179 214.041ZM156.674 214.041C156.674 213.787 156.744 213.603 156.883 213.489C157.027 213.37 157.201 213.311 157.404 213.311C157.607 213.311 157.78 213.37 157.924 213.489C158.072 213.603 158.146 213.787 158.146 214.041C158.146 214.286 158.072 214.471 157.924 214.593C157.78 214.716 157.607 214.777 157.404 214.777C157.201 214.777 157.027 214.716 156.883 214.593C156.744 214.471 156.674 214.286 156.674 214.041ZM170.061 215.901L167.306 219.291L170.308 222.928H168.671L165.795 219.36V222.928H164.405V219.36L161.53 222.928H159.892L162.894 219.291L160.14 215.901H161.72L164.405 219.31V215.901H165.795V219.31L168.487 215.901H170.061ZM172.905 215.901V218.726H176.193V215.901H177.691V222.928H176.193V219.894H172.905V222.928H171.407V215.901H172.905ZM179.824 222.928V215.901H181.322V218.707H182.737C183.397 218.707 183.941 218.783 184.369 218.935C184.796 219.083 185.113 219.307 185.321 219.608C185.528 219.908 185.632 220.285 185.632 220.738C185.632 221.182 185.532 221.569 185.333 221.899C185.134 222.225 184.823 222.479 184.4 222.661C183.977 222.839 183.423 222.928 182.737 222.928H179.824ZM181.322 221.83H182.636C183.084 221.83 183.446 221.749 183.721 221.588C184 221.423 184.14 221.153 184.14 220.776C184.14 220.425 184.011 220.177 183.753 220.033C183.499 219.885 183.127 219.811 182.636 219.811H181.322V221.83ZM186.717 222.928V215.901H188.215V222.928H186.717ZM191.783 215.901V219.487C191.783 219.602 191.778 219.748 191.77 219.925C191.766 220.099 191.757 220.281 191.745 220.471C191.732 220.657 191.719 220.829 191.706 220.985C191.694 221.142 191.683 221.258 191.675 221.334L195.21 215.901H197.026V222.928H195.598V219.379C195.598 219.193 195.602 218.977 195.61 218.732C195.623 218.486 195.636 218.25 195.648 218.021C195.665 217.792 195.676 217.619 195.68 217.5L192.157 222.928H190.348V215.901H191.783ZM196.499 212.943C196.457 213.379 196.338 213.755 196.143 214.073C195.953 214.386 195.663 214.627 195.274 214.796C194.884 214.966 194.372 215.05 193.738 215.05C193.082 215.05 192.563 214.97 192.183 214.809C191.802 214.644 191.527 214.405 191.357 214.092C191.188 213.774 191.086 213.391 191.053 212.943H192.411C192.453 213.413 192.576 213.73 192.779 213.895C192.982 214.056 193.31 214.136 193.763 214.136C194.152 214.136 194.463 214.049 194.696 213.876C194.933 213.702 195.075 213.391 195.121 212.943H196.499ZM133.187 230.901V237.928H131.683V232.082H128.547V237.928H127.049V230.901H133.187ZM141.547 234.398C141.547 234.982 141.471 235.501 141.319 235.954C141.166 236.406 140.944 236.789 140.652 237.103C140.36 237.411 140.009 237.648 139.599 237.813C139.188 237.974 138.725 238.055 138.208 238.055C137.726 238.055 137.284 237.974 136.882 237.813C136.48 237.648 136.131 237.411 135.834 237.103C135.542 236.789 135.316 236.406 135.155 235.954C134.994 235.501 134.914 234.982 134.914 234.398C134.914 233.624 135.047 232.968 135.314 232.431C135.585 231.889 135.97 231.476 136.469 231.193C136.968 230.909 137.563 230.768 138.253 230.768C138.9 230.768 139.472 230.909 139.967 231.193C140.462 231.476 140.849 231.889 141.128 232.431C141.408 232.972 141.547 233.628 141.547 234.398ZM136.45 234.398C136.45 234.91 136.511 235.348 136.634 235.712C136.761 236.076 136.956 236.356 137.218 236.55C137.481 236.741 137.819 236.836 138.234 236.836C138.648 236.836 138.987 236.741 139.249 236.55C139.512 236.356 139.704 236.076 139.827 235.712C139.95 235.348 140.011 234.91 140.011 234.398C140.011 233.886 139.95 233.453 139.827 233.097C139.704 232.737 139.512 232.465 139.249 232.278C138.987 232.088 138.646 231.993 138.227 231.993C137.61 231.993 137.159 232.2 136.875 232.615C136.592 233.029 136.45 233.624 136.45 234.398ZM146.092 238.055C145.428 238.055 144.852 237.926 144.366 237.667C143.879 237.409 143.504 237.014 143.242 236.48C142.98 235.947 142.849 235.27 142.849 234.449C142.849 233.594 142.992 232.896 143.28 232.354C143.568 231.813 143.966 231.413 144.474 231.155C144.986 230.897 145.572 230.768 146.232 230.768C146.651 230.768 147.03 230.81 147.368 230.895C147.711 230.975 148.001 231.074 148.238 231.193L147.793 232.386C147.535 232.28 147.271 232.192 147 232.12C146.729 232.048 146.469 232.012 146.219 232.012C145.809 232.012 145.466 232.103 145.191 232.285C144.92 232.467 144.717 232.737 144.581 233.097C144.45 233.457 144.385 233.903 144.385 234.437C144.385 234.953 144.452 235.389 144.588 235.744C144.723 236.095 144.924 236.362 145.191 236.544C145.457 236.722 145.785 236.811 146.175 236.811C146.56 236.811 146.905 236.764 147.209 236.671C147.514 236.578 147.802 236.457 148.073 236.309V237.604C147.806 237.756 147.52 237.868 147.216 237.94C146.911 238.017 146.537 238.055 146.092 238.055ZM155.03 232.075H152.719V237.928H151.234V232.075H148.936V230.901H155.03V232.075ZM159.143 230.768C160.032 230.768 160.702 230.964 161.155 231.358C161.612 231.751 161.841 232.365 161.841 233.199V237.928H160.781L160.495 236.931H160.444C160.245 237.185 160.04 237.395 159.829 237.56C159.617 237.725 159.371 237.847 159.092 237.928C158.817 238.012 158.481 238.055 158.083 238.055C157.664 238.055 157.289 237.979 156.959 237.826C156.629 237.67 156.369 237.433 156.179 237.115C155.988 236.798 155.893 236.396 155.893 235.909C155.893 235.186 156.162 234.642 156.699 234.278C157.241 233.914 158.058 233.713 159.149 233.675L160.368 233.63V233.262C160.368 232.776 160.254 232.429 160.025 232.221C159.801 232.014 159.484 231.91 159.073 231.91C158.722 231.91 158.381 231.961 158.051 232.062C157.721 232.164 157.399 232.289 157.086 232.437L156.604 231.383C156.947 231.201 157.336 231.053 157.772 230.939C158.212 230.825 158.669 230.768 159.143 230.768ZM160.362 234.57L159.454 234.602C158.709 234.627 158.187 234.754 157.886 234.982C157.586 235.211 157.435 235.524 157.435 235.922C157.435 236.269 157.539 236.523 157.746 236.684C157.954 236.84 158.227 236.918 158.565 236.918C159.082 236.918 159.509 236.772 159.848 236.48C160.19 236.184 160.362 235.75 160.362 235.179V234.57ZM169.839 232.704C169.839 233.11 169.714 233.442 169.464 233.7C169.219 233.954 168.88 234.121 168.449 234.202V234.252C168.91 234.312 169.295 234.475 169.604 234.741C169.913 235.008 170.067 235.378 170.067 235.852C170.067 236.254 169.966 236.612 169.763 236.925C169.564 237.234 169.246 237.479 168.81 237.661C168.379 237.839 167.814 237.928 167.116 237.928H163.929V230.901H167.103C167.628 230.901 168.095 230.958 168.506 231.072C168.92 231.187 169.246 231.375 169.483 231.637C169.72 231.9 169.839 232.255 169.839 232.704ZM168.512 235.801C168.512 235.454 168.379 235.205 168.112 235.052C167.85 234.9 167.465 234.824 166.957 234.824H165.427V236.83H166.989C167.463 236.83 167.835 236.751 168.106 236.595C168.377 236.434 168.512 236.169 168.512 235.801ZM168.322 232.837C168.322 232.562 168.218 232.359 168.011 232.228C167.803 232.092 167.477 232.024 167.033 232.024H165.427V233.726H166.83C167.321 233.726 167.691 233.656 167.941 233.516C168.195 233.372 168.322 233.146 168.322 232.837ZM181.696 230.901V236.779H182.712V240.397H181.309V237.928H171.749V230.901H173.241V236.753H175.971V230.901H177.469V236.753H180.204V230.901H181.696ZM185.422 230.901V234.487C185.422 234.602 185.418 234.748 185.41 234.925C185.405 235.099 185.397 235.281 185.384 235.471C185.371 235.657 185.359 235.829 185.346 235.985C185.333 236.142 185.323 236.258 185.314 236.334L188.85 230.901H190.665V237.928H189.237V234.379C189.237 234.193 189.241 233.977 189.25 233.732C189.263 233.486 189.275 233.25 189.288 233.021C189.305 232.792 189.315 232.619 189.32 232.5L185.797 237.928H183.988V230.901H185.422ZM197.165 230.901H198.809L195.902 234.278L199.057 237.928H197.337L194.309 234.36V237.928H192.811V230.901H194.309V234.31L197.165 230.901Z" fill="#5B5B5B"/>
<defs>
<clipPath id="clip0_49_1543">
<rect width="105" height="105" fill="white" transform="translate(110.058 84.9277)"/>
</clipPath>
</defs>
</svg>
