<svg width="325" height="325" viewBox="0 0 325 325" fill="none" xmlns="http://www.w3.org/2000/svg">
<path d="M47.5832 162.5L105.042 62.9791L219.958 62.9791L277.417 162.5L219.958 262.021L105.042 262.021L47.5832 162.5Z" stroke="#FF4500" stroke-width="7"/>
<g clip-path="url(#clip0_349_6854)">
<path d="M124.918 103.561L133.228 105.449L132.347 97.0142L140.152 100.414L141.034 91.8524L147.958 96.7624L150.476 88.579L156.393 94.748L160.296 87.1941L164.954 94.3703L170.368 87.8236L173.39 95.7552L179.936 90.3416L181.447 98.6509L189.001 94.6221L188.749 103.183L196.933 100.665L195.17 108.975L203.606 108.093L200.206 115.899L208.642 116.78L203.857 123.705L212.041 126.223L205.872 132.14L213.426 136.043L206.124 140.701L212.796 146.115L204.865 149.137L210.278 155.809L201.843 157.194L205.998 164.748L197.436 164.622L199.954 172.68L191.519 170.917L192.401 179.352L184.595 175.953L183.839 184.514L176.789 179.604L174.397 187.788L168.48 181.619L164.451 189.173L159.918 181.87L154.505 188.543L151.357 180.611L144.811 186.025L143.3 177.59L135.872 181.744L135.998 173.183L127.814 175.701L129.703 167.392L121.142 168.273L124.667 160.342L116.106 159.586L121.016 152.662L112.832 150.144L119.001 144.226L111.447 140.198L118.624 135.665L112.077 130.252L120.008 127.23L114.469 120.557L122.904 119.173L118.875 111.619L127.436 111.744L124.918 103.561Z" fill="#FF4500"/>
<path d="M162.311 178.974C185.117 178.974 203.606 160.486 203.606 137.679C203.606 114.873 185.117 96.3845 162.311 96.3845C139.504 96.3845 121.016 114.873 121.016 137.679C121.016 160.486 139.504 178.974 162.311 178.974Z" fill="white" stroke="#FF4500" stroke-width="1.6162" stroke-miterlimit="10"/>
<path d="M162.316 111.24L168.989 131.51H190.266L173.017 143.974L179.564 164.244L162.316 151.78L145.194 164.244L151.74 143.974L134.492 131.51H155.769L162.316 111.24Z" fill="#FF4500"/>
</g>
<path d="M135.048 222.928H133.531V218.738H129.252V222.928H127.729V213.647H129.252V217.443H133.531V213.647H135.048V222.928ZM140.107 215.768C140.996 215.768 141.666 215.964 142.119 216.358C142.576 216.751 142.805 217.365 142.805 218.199V222.928H141.745L141.459 221.931H141.408C141.209 222.185 141.004 222.395 140.792 222.56C140.581 222.725 140.335 222.847 140.056 222.928C139.781 223.012 139.445 223.055 139.047 223.055C138.628 223.055 138.253 222.979 137.923 222.826C137.593 222.67 137.333 222.433 137.142 222.115C136.952 221.798 136.857 221.396 136.857 220.909C136.857 220.186 137.126 219.642 137.663 219.278C138.205 218.914 139.021 218.713 140.113 218.675L141.332 218.63V218.262C141.332 217.776 141.218 217.429 140.989 217.221C140.765 217.014 140.447 216.91 140.037 216.91C139.686 216.91 139.345 216.961 139.015 217.062C138.685 217.164 138.363 217.289 138.05 217.437L137.568 216.383C137.911 216.201 138.3 216.053 138.736 215.939C139.176 215.825 139.633 215.768 140.107 215.768ZM141.326 219.57L140.418 219.602C139.673 219.627 139.15 219.754 138.85 219.982C138.55 220.211 138.399 220.524 138.399 220.922C138.399 221.269 138.503 221.523 138.71 221.684C138.918 221.84 139.191 221.918 139.529 221.918C140.045 221.918 140.473 221.772 140.811 221.48C141.154 221.184 141.326 220.75 141.326 220.179V219.57ZM150.631 215.901V221.772H151.647V225.403H150.269V222.928H145.42V225.403H144.042V221.772H144.614C144.969 221.256 145.265 220.681 145.502 220.046C145.744 219.411 145.93 218.743 146.061 218.04C146.196 217.333 146.281 216.62 146.315 215.901H150.631ZM149.152 217.043H147.597C147.546 217.615 147.46 218.184 147.337 218.751C147.214 219.314 147.055 219.853 146.861 220.37C146.67 220.882 146.442 221.349 146.175 221.772H149.152V217.043ZM155.754 215.768C156.38 215.768 156.918 215.897 157.366 216.155C157.815 216.413 158.16 216.779 158.401 217.253C158.642 217.727 158.763 218.294 158.763 218.954V219.754H154.072C154.089 220.435 154.271 220.96 154.618 221.328C154.969 221.696 155.46 221.88 156.09 221.88C156.539 221.88 156.941 221.838 157.296 221.753C157.656 221.665 158.026 221.535 158.407 221.366V222.579C158.056 222.744 157.698 222.864 157.334 222.94C156.97 223.017 156.535 223.055 156.027 223.055C155.337 223.055 154.73 222.921 154.205 222.655C153.684 222.384 153.276 221.982 152.98 221.449C152.688 220.916 152.542 220.253 152.542 219.462C152.542 218.675 152.675 218.006 152.942 217.456C153.208 216.906 153.583 216.487 154.065 216.199C154.548 215.911 155.111 215.768 155.754 215.768ZM155.754 216.891C155.284 216.891 154.903 217.043 154.611 217.348C154.323 217.653 154.154 218.099 154.103 218.688H157.303C157.298 218.336 157.239 218.025 157.125 217.754C157.015 217.484 156.846 217.272 156.617 217.12C156.393 216.967 156.105 216.891 155.754 216.891ZM153.678 214.041C153.678 213.787 153.748 213.603 153.888 213.489C154.027 213.37 154.199 213.311 154.402 213.311C154.605 213.311 154.778 213.37 154.922 213.489C155.07 213.603 155.144 213.787 155.144 214.041C155.144 214.286 155.07 214.471 154.922 214.593C154.778 214.716 154.605 214.777 154.402 214.777C154.199 214.777 154.027 214.716 153.888 214.593C153.748 214.471 153.678 214.286 153.678 214.041ZM156.173 214.041C156.173 213.787 156.243 213.603 156.382 213.489C156.526 213.37 156.7 213.311 156.903 213.311C157.106 213.311 157.279 213.37 157.423 213.489C157.571 213.603 157.645 213.787 157.645 214.041C157.645 214.286 157.571 214.471 157.423 214.593C157.279 214.716 157.106 214.777 156.903 214.777C156.7 214.777 156.526 214.716 156.382 214.593C156.243 214.471 156.173 214.286 156.173 214.041ZM169.56 215.901L166.805 219.291L169.808 222.928H168.17L165.294 219.36V222.928H163.904V219.36L161.029 222.928H159.391L162.393 219.291L159.639 215.901H161.219L163.904 219.31V215.901H165.294V219.31L167.986 215.901H169.56ZM172.404 215.901V218.726H175.692V215.901H177.19V222.928H175.692V219.894H172.404V222.928H170.906V215.901H172.404ZM179.323 222.928V215.901H180.821V218.707H182.236C182.896 218.707 183.44 218.783 183.868 218.935C184.295 219.083 184.612 219.307 184.82 219.608C185.027 219.908 185.131 220.285 185.131 220.738C185.131 221.182 185.031 221.569 184.832 221.899C184.634 222.225 184.322 222.479 183.899 222.661C183.476 222.839 182.922 222.928 182.236 222.928H179.323ZM180.821 221.83H182.135C182.583 221.83 182.945 221.749 183.22 221.588C183.499 221.423 183.639 221.153 183.639 220.776C183.639 220.425 183.51 220.177 183.252 220.033C182.998 219.885 182.626 219.811 182.135 219.811H180.821V221.83ZM186.216 222.928V215.901H187.714V222.928H186.216ZM191.282 215.901V219.487C191.282 219.602 191.277 219.748 191.269 219.925C191.265 220.099 191.256 220.281 191.244 220.471C191.231 220.657 191.218 220.829 191.205 220.985C191.193 221.142 191.182 221.258 191.174 221.334L194.709 215.901H196.525V222.928H195.097V219.379C195.097 219.193 195.101 218.977 195.109 218.732C195.122 218.486 195.135 218.25 195.147 218.021C195.164 217.792 195.175 217.619 195.179 217.5L191.656 222.928H189.847V215.901H191.282ZM195.998 212.943C195.956 213.379 195.837 213.755 195.642 214.073C195.452 214.386 195.162 214.627 194.773 214.796C194.384 214.966 193.871 215.05 193.237 215.05C192.581 215.05 192.062 214.97 191.682 214.809C191.301 214.644 191.026 214.405 190.856 214.092C190.687 213.774 190.586 213.391 190.552 212.943H191.91C191.952 213.413 192.075 213.73 192.278 213.895C192.481 214.056 192.809 214.136 193.262 214.136C193.651 214.136 193.962 214.049 194.195 213.876C194.432 213.702 194.574 213.391 194.62 212.943H195.998ZM132.686 230.901V237.928H131.182V232.082H128.046V237.928H126.548V230.901H132.686ZM141.046 234.398C141.046 234.982 140.97 235.501 140.818 235.954C140.665 236.406 140.443 236.789 140.151 237.103C139.859 237.411 139.508 237.648 139.098 237.813C138.687 237.974 138.224 238.055 137.707 238.055C137.225 238.055 136.783 237.974 136.381 237.813C135.979 237.648 135.63 237.411 135.333 237.103C135.041 236.789 134.815 236.406 134.654 235.954C134.493 235.501 134.413 234.982 134.413 234.398C134.413 233.624 134.546 232.968 134.813 232.431C135.084 231.889 135.469 231.476 135.968 231.193C136.468 230.909 137.062 230.768 137.752 230.768C138.399 230.768 138.971 230.909 139.466 231.193C139.961 231.476 140.348 231.889 140.627 232.431C140.907 232.972 141.046 233.628 141.046 234.398ZM135.949 234.398C135.949 234.91 136.01 235.348 136.133 235.712C136.26 236.076 136.455 236.356 136.717 236.55C136.98 236.741 137.318 236.836 137.733 236.836C138.148 236.836 138.486 236.741 138.748 236.55C139.011 236.356 139.203 236.076 139.326 235.712C139.449 235.348 139.51 234.91 139.51 234.398C139.51 233.886 139.449 233.453 139.326 233.097C139.203 232.737 139.011 232.465 138.748 232.278C138.486 232.088 138.145 231.993 137.726 231.993C137.109 231.993 136.658 232.2 136.374 232.615C136.091 233.029 135.949 233.624 135.949 234.398ZM145.591 238.055C144.927 238.055 144.351 237.926 143.865 237.667C143.378 237.409 143.003 237.014 142.741 236.48C142.479 235.947 142.348 235.27 142.348 234.449C142.348 233.594 142.491 232.896 142.779 232.354C143.067 231.813 143.465 231.413 143.973 231.155C144.485 230.897 145.071 230.768 145.731 230.768C146.15 230.768 146.529 230.81 146.867 230.895C147.21 230.975 147.5 231.074 147.737 231.193L147.292 232.386C147.034 232.28 146.77 232.192 146.499 232.12C146.228 232.048 145.968 232.012 145.718 232.012C145.308 232.012 144.965 232.103 144.69 232.285C144.419 232.467 144.216 232.737 144.08 233.097C143.949 233.457 143.884 233.903 143.884 234.437C143.884 234.953 143.951 235.389 144.087 235.744C144.222 236.095 144.423 236.362 144.69 236.544C144.956 236.722 145.284 236.811 145.674 236.811C146.059 236.811 146.404 236.764 146.708 236.671C147.013 236.578 147.301 236.457 147.572 236.309V237.604C147.305 237.756 147.019 237.868 146.715 237.94C146.41 238.017 146.036 238.055 145.591 238.055ZM154.529 232.075H152.218V237.928H150.733V232.075H148.435V230.901H154.529V232.075ZM158.642 230.768C159.531 230.768 160.201 230.964 160.654 231.358C161.111 231.751 161.34 232.365 161.34 233.199V237.928H160.28L159.994 236.931H159.943C159.744 237.185 159.539 237.395 159.328 237.56C159.116 237.725 158.871 237.847 158.591 237.928C158.316 238.012 157.98 238.055 157.582 238.055C157.163 238.055 156.788 237.979 156.458 237.826C156.128 237.67 155.868 237.433 155.678 237.115C155.487 236.798 155.392 236.396 155.392 235.909C155.392 235.186 155.661 234.642 156.198 234.278C156.74 233.914 157.557 233.713 158.648 233.675L159.867 233.63V233.262C159.867 232.776 159.753 232.429 159.524 232.221C159.3 232.014 158.983 231.91 158.572 231.91C158.221 231.91 157.88 231.961 157.55 232.062C157.22 232.164 156.898 232.289 156.585 232.437L156.103 231.383C156.446 231.201 156.835 231.053 157.271 230.939C157.711 230.825 158.168 230.768 158.642 230.768ZM159.861 234.57L158.953 234.602C158.208 234.627 157.686 234.754 157.385 234.982C157.085 235.211 156.934 235.524 156.934 235.922C156.934 236.269 157.038 236.523 157.246 236.684C157.453 236.84 157.726 236.918 158.064 236.918C158.581 236.918 159.008 236.772 159.347 236.48C159.689 236.184 159.861 235.75 159.861 235.179V234.57ZM169.338 232.704C169.338 233.11 169.213 233.442 168.963 233.7C168.718 233.954 168.379 234.121 167.948 234.202V234.252C168.409 234.312 168.794 234.475 169.103 234.741C169.412 235.008 169.566 235.378 169.566 235.852C169.566 236.254 169.465 236.612 169.262 236.925C169.063 237.234 168.745 237.479 168.309 237.661C167.878 237.839 167.313 237.928 166.615 237.928H163.428V230.901H166.602C167.127 230.901 167.594 230.958 168.005 231.072C168.419 231.187 168.745 231.375 168.982 231.637C169.219 231.9 169.338 232.255 169.338 232.704ZM168.011 235.801C168.011 235.454 167.878 235.205 167.611 235.052C167.349 234.9 166.964 234.824 166.456 234.824H164.926V236.83H166.488C166.962 236.83 167.334 236.751 167.605 236.595C167.876 236.434 168.011 236.169 168.011 235.801ZM167.821 232.837C167.821 232.562 167.717 232.359 167.51 232.228C167.302 232.092 166.976 232.024 166.532 232.024H164.926V233.726H166.329C166.82 233.726 167.19 233.656 167.44 233.516C167.694 233.372 167.821 233.146 167.821 232.837ZM181.195 230.901V236.779H182.211V240.397H180.808V237.928H171.248V230.901H172.74V236.753H175.47V230.901H176.968V236.753H179.704V230.901H181.195ZM184.921 230.901V234.487C184.921 234.602 184.917 234.748 184.909 234.925C184.904 235.099 184.896 235.281 184.883 235.471C184.87 235.657 184.858 235.829 184.845 235.985C184.832 236.142 184.822 236.258 184.813 236.334L188.349 230.901H190.164V237.928H188.736V234.379C188.736 234.193 188.74 233.977 188.749 233.732C188.762 233.486 188.774 233.25 188.787 233.021C188.804 232.792 188.815 232.619 188.819 232.5L185.296 237.928H183.487V230.901H184.921ZM196.664 230.901H198.308L195.401 234.278L198.556 237.928H196.836L193.808 234.36V237.928H192.31V230.901H193.808V234.31L196.664 230.901Z" fill="#5B5B5B"/>
<defs>
<clipPath id="clip0_349_6854">
<rect width="105" height="105" fill="white" transform="translate(109.557 84.9277)"/>
</clipPath>
</defs>
</svg>
