<svg width="106" height="106" viewBox="0 0 106 106" fill="none" xmlns="http://www.w3.org/2000/svg">
<g id="&#208;&#157;&#208;&#176;&#209;&#134;&#208;&#181;&#208;&#187;&#208;&#181;&#208;&#189;&#208;&#189;&#208;&#190;&#209;&#129;&#209;&#130;&#209;&#140;-new 1" clip-path="url(#clip0_210_4457)">
<path id="Vector" d="M54.2189 85.5951C72.5059 85.5951 87.3304 70.7706 87.3304 52.4836C87.3304 34.1966 72.5059 19.3721 54.2189 19.3721C35.9319 19.3721 21.1074 34.1966 21.1074 52.4836C21.1074 70.7706 35.9319 85.5951 54.2189 85.5951Z" stroke="#FF4500" stroke-width="0.808099" stroke-miterlimit="10"/>
<path id="Vector_2" d="M54.2189 85.5951C72.5059 85.5951 87.3304 70.7706 87.3304 52.4836C87.3304 34.1966 72.5059 19.3721 54.2189 19.3721C35.9319 19.3721 21.1074 34.1966 21.1074 52.4836C21.1074 70.7706 35.9319 85.5951 54.2189 85.5951Z" stroke="#FF4500" stroke-width="1.6162" stroke-miterlimit="10"/>
<path id="Vector_3" d="M54.2205 63.9408C60.5479 63.9408 65.6773 58.8114 65.6773 52.4839C65.6773 46.1565 60.5479 41.0271 54.2205 41.0271C47.8931 41.0271 42.7637 46.1565 42.7637 52.4839C42.7637 58.8114 47.8931 63.9408 54.2205 63.9408Z" stroke="#FF4500" stroke-width="1.6162" stroke-miterlimit="10"/>
<path id="Vector_4" d="M54.2192 97.9337C79.3203 97.9337 99.6688 77.5852 99.6688 52.4841C99.6688 27.3829 79.3203 7.03442 54.2192 7.03442C29.118 7.03442 8.76953 27.3829 8.76953 52.4841C8.76953 77.5852 29.118 97.9337 54.2192 97.9337Z" stroke="#FF4500" stroke-width="1.6162" stroke-miterlimit="10"/>
<path id="Vector_5" d="M2.60156 52.4834H34.7059" stroke="#FF4500" stroke-width="1.6162" stroke-miterlimit="10"/>
<path id="Vector_6" d="M73.3555 52.4834H105.334" stroke="#FF4500" stroke-width="1.6162" stroke-miterlimit="10"/>
<path id="Vector_7" d="M53.9668 0.991211V33.0955" stroke="#FF4500" stroke-width="1.6162" stroke-miterlimit="10"/>
<path id="Vector_8" d="M53.9668 71.7461V103.85" stroke="#FF4500" stroke-width="1.6162" stroke-miterlimit="10"/>
</g>
<defs>
<clipPath id="clip0_210_4457">
<rect width="105" height="105" fill="white" transform="translate(0.460938 0.487305)"/>
</clipPath>
</defs>
</svg>
