<svg width="325" height="325" viewBox="0 0 325 325" fill="none" xmlns="http://www.w3.org/2000/svg">
<path d="M47.5832 162.5L105.042 62.9791L219.958 62.9791L277.417 162.5L219.958 262.021L105.042 262.021L47.5832 162.5Z" stroke="#FF4500" stroke-width="7"/>
<g clip-path="url(#clip0_349_6863)">
<path d="M164.219 174.934C189.32 174.934 209.669 154.585 209.669 129.484C209.669 104.383 189.32 84.0344 164.219 84.0344C139.118 84.0344 118.77 104.383 118.77 129.484C118.77 154.585 139.118 174.934 164.219 174.934Z" fill="#FF4500"/>
<path d="M164.219 162.595C182.506 162.595 197.33 147.771 197.33 129.484C197.33 111.197 182.506 96.3721 164.219 96.3721C145.932 96.3721 131.107 111.197 131.107 129.484C131.107 147.771 145.932 162.595 164.219 162.595Z" stroke="#FF4500" stroke-width="0.808099" stroke-miterlimit="10"/>
<path d="M164.219 162.595C182.506 162.595 197.33 147.771 197.33 129.484C197.33 111.197 182.506 96.3721 164.219 96.3721C145.932 96.3721 131.107 111.197 131.107 129.484C131.107 147.771 145.932 162.595 164.219 162.595Z" fill="white" stroke="#FF4500" stroke-width="1.6162" stroke-miterlimit="10"/>
<path d="M164.221 140.941C170.548 140.941 175.677 135.811 175.677 129.484C175.677 123.156 170.548 118.027 164.221 118.027C157.893 118.027 152.764 123.156 152.764 129.484C152.764 135.811 157.893 140.941 164.221 140.941Z" fill="#FF4500" stroke="#FF4500" stroke-width="1.6162" stroke-miterlimit="10"/>
<path d="M112.602 129.483H144.706" stroke="#FF4500" stroke-width="3" stroke-miterlimit="10"/>
<path d="M183.355 129.483H215.334" stroke="#FF4500" stroke-width="3" stroke-miterlimit="10"/>
<path d="M163.967 77.9912V110.096" stroke="#FF4500" stroke-width="3" stroke-miterlimit="10"/>
<path d="M163.967 148.746V180.85" stroke="#FF4500" stroke-width="3" stroke-miterlimit="10"/>
</g>
<path d="M122.564 215.487H121.047V211.298H116.769V215.487H115.246V206.207H116.769V210.003H121.047V206.207H122.564V215.487ZM127.624 208.327C128.512 208.327 129.183 208.524 129.636 208.917C130.093 209.311 130.321 209.925 130.321 210.758V215.487H129.261L128.976 214.491H128.925C128.726 214.745 128.521 214.954 128.309 215.119C128.097 215.284 127.852 215.407 127.573 215.487C127.298 215.572 126.961 215.614 126.563 215.614C126.145 215.614 125.77 215.538 125.44 215.386C125.11 215.229 124.85 214.992 124.659 214.675C124.469 214.357 124.374 213.955 124.374 213.469C124.374 212.745 124.642 212.201 125.18 211.837C125.721 211.473 126.538 211.272 127.63 211.234L128.849 211.19V210.822C128.849 210.335 128.734 209.988 128.506 209.781C128.282 209.573 127.964 209.47 127.554 209.47C127.202 209.47 126.862 209.521 126.532 209.622C126.202 209.724 125.88 209.848 125.567 209.997L125.084 208.943C125.427 208.761 125.817 208.613 126.252 208.499C126.693 208.384 127.15 208.327 127.624 208.327ZM128.842 212.129L127.935 212.161C127.19 212.187 126.667 212.313 126.367 212.542C126.066 212.771 125.916 213.084 125.916 213.481C125.916 213.828 126.02 214.082 126.227 214.243C126.434 214.4 126.707 214.478 127.046 214.478C127.562 214.478 127.99 214.332 128.328 214.04C128.671 213.744 128.842 213.31 128.842 212.739V212.129ZM139.665 217.963H138.281V215.487H132.41V208.46H133.908V214.313H137.164V208.46H138.662V214.338H139.665V217.963ZM143.753 208.327C144.379 208.327 144.917 208.456 145.365 208.714C145.814 208.972 146.159 209.339 146.4 209.812C146.641 210.286 146.762 210.854 146.762 211.514V212.313H142.071C142.088 212.995 142.27 213.52 142.617 213.888C142.968 214.256 143.459 214.44 144.089 214.44C144.538 214.44 144.94 214.398 145.295 214.313C145.655 214.224 146.025 214.095 146.406 213.926V215.138C146.055 215.303 145.697 215.424 145.333 215.5C144.97 215.576 144.534 215.614 144.026 215.614C143.336 215.614 142.729 215.481 142.204 215.214C141.684 214.944 141.275 214.542 140.979 214.008C140.687 213.475 140.541 212.813 140.541 212.021C140.541 211.234 140.674 210.566 140.941 210.016C141.208 209.465 141.582 209.047 142.064 208.759C142.547 208.471 143.11 208.327 143.753 208.327ZM143.753 209.451C143.283 209.451 142.902 209.603 142.61 209.908C142.323 210.212 142.153 210.659 142.103 211.247H145.302C145.298 210.896 145.238 210.585 145.124 210.314C145.014 210.043 144.845 209.832 144.616 209.679C144.392 209.527 144.104 209.451 143.753 209.451ZM154.227 215.487H152.722V209.628H150.773C150.689 210.695 150.583 211.607 150.456 212.364C150.329 213.122 150.17 213.74 149.98 214.218C149.79 214.692 149.555 215.039 149.275 215.259C148.996 215.479 148.66 215.589 148.266 215.589C148.093 215.589 147.936 215.576 147.796 215.551C147.657 215.53 147.532 215.496 147.422 215.449V214.275C147.494 214.3 147.572 214.321 147.657 214.338C147.741 214.355 147.828 214.364 147.917 214.364C148.074 214.364 148.217 214.3 148.349 214.173C148.484 214.042 148.609 213.837 148.723 213.558C148.837 213.278 148.941 212.91 149.034 212.453C149.127 211.992 149.212 211.433 149.288 210.777C149.364 210.117 149.432 209.345 149.491 208.46H154.227V215.487ZM159.165 208.327C159.791 208.327 160.329 208.456 160.777 208.714C161.226 208.972 161.571 209.339 161.812 209.812C162.053 210.286 162.174 210.854 162.174 211.514V212.313H157.483C157.5 212.995 157.682 213.52 158.029 213.888C158.38 214.256 158.871 214.44 159.501 214.44C159.95 214.44 160.352 214.398 160.708 214.313C161.067 214.224 161.438 214.095 161.818 213.926V215.138C161.467 215.303 161.11 215.424 160.746 215.5C160.382 215.576 159.946 215.614 159.438 215.614C158.748 215.614 158.141 215.481 157.616 215.214C157.096 214.944 156.687 214.542 156.391 214.008C156.099 213.475 155.953 212.813 155.953 212.021C155.953 211.234 156.086 210.566 156.353 210.016C156.62 209.465 156.994 209.047 157.477 208.759C157.959 208.471 158.522 208.327 159.165 208.327ZM159.165 209.451C158.695 209.451 158.314 209.603 158.022 209.908C157.735 210.212 157.565 210.659 157.515 211.247H160.714C160.71 210.896 160.65 210.585 160.536 210.314C160.426 210.043 160.257 209.832 160.028 209.679C159.804 209.527 159.516 209.451 159.165 209.451ZM165.354 208.46V211.285H168.642V208.46H170.14V215.487H168.642V212.453H165.354V215.487H163.856V208.46H165.354ZM173.771 208.46V211.285H177.059V208.46H178.557V215.487H177.059V212.453H173.771V215.487H172.273V208.46H173.771ZM186.911 211.958C186.911 212.542 186.834 213.06 186.682 213.513C186.53 213.966 186.308 214.349 186.016 214.662C185.724 214.971 185.372 215.208 184.962 215.373C184.551 215.534 184.088 215.614 183.572 215.614C183.089 215.614 182.647 215.534 182.245 215.373C181.843 215.208 181.494 214.971 181.198 214.662C180.906 214.349 180.679 213.966 180.519 213.513C180.358 213.06 180.277 212.542 180.277 211.958C180.277 211.184 180.411 210.528 180.677 209.99C180.948 209.449 181.333 209.036 181.833 208.752C182.332 208.469 182.926 208.327 183.616 208.327C184.264 208.327 184.835 208.469 185.33 208.752C185.825 209.036 186.212 209.449 186.492 209.99C186.771 210.532 186.911 211.188 186.911 211.958ZM181.813 211.958C181.813 212.47 181.875 212.908 181.998 213.272C182.125 213.636 182.319 213.915 182.582 214.11C182.844 214.3 183.182 214.396 183.597 214.396C184.012 214.396 184.35 214.3 184.613 214.11C184.875 213.915 185.068 213.636 185.19 213.272C185.313 212.908 185.375 212.47 185.375 211.958C185.375 211.446 185.313 211.012 185.19 210.657C185.068 210.297 184.875 210.024 184.613 209.838C184.35 209.647 184.01 209.552 183.591 209.552C182.973 209.552 182.522 209.76 182.239 210.174C181.955 210.589 181.813 211.184 181.813 211.958ZM191.456 215.614C190.791 215.614 190.216 215.485 189.729 215.227C189.242 214.969 188.868 214.573 188.605 214.04C188.343 213.507 188.212 212.83 188.212 212.009C188.212 211.154 188.356 210.456 188.644 209.914C188.931 209.372 189.329 208.972 189.837 208.714C190.349 208.456 190.935 208.327 191.595 208.327C192.014 208.327 192.393 208.369 192.731 208.454C193.074 208.535 193.364 208.634 193.601 208.752L193.157 209.946C192.899 209.84 192.634 209.751 192.363 209.679C192.092 209.607 191.832 209.571 191.583 209.571C191.172 209.571 190.829 209.662 190.554 209.844C190.283 210.026 190.08 210.297 189.945 210.657C189.814 211.016 189.748 211.463 189.748 211.996C189.748 212.512 189.816 212.948 189.951 213.304C190.087 213.655 190.288 213.922 190.554 214.104C190.821 214.281 191.149 214.37 191.538 214.37C191.923 214.37 192.268 214.324 192.573 214.23C192.877 214.137 193.165 214.017 193.436 213.869V215.164C193.169 215.316 192.884 215.428 192.579 215.5C192.274 215.576 191.9 215.614 191.456 215.614ZM200.393 209.635H198.083V215.487H196.597V209.635H194.299V208.46H200.393V209.635ZM203.25 211.266H204.995C205.655 211.266 206.201 211.342 206.633 211.495C207.069 211.643 207.395 211.867 207.61 212.167C207.826 212.468 207.934 212.845 207.934 213.297C207.934 213.742 207.833 214.129 207.629 214.459C207.426 214.785 207.109 215.039 206.677 215.221C206.25 215.398 205.691 215.487 205.001 215.487H201.751V208.46H203.25V211.266ZM206.436 213.335C206.436 212.984 206.305 212.737 206.042 212.593C205.78 212.445 205.406 212.371 204.919 212.371H203.25V214.389H204.932C205.376 214.389 205.738 214.309 206.017 214.148C206.296 213.983 206.436 213.712 206.436 213.335ZM124.221 223.46V226.285H127.509V223.46H129.007V230.487H127.509V227.453H124.221V230.487H122.723V223.46H124.221ZM133.895 223.327C134.784 223.327 135.454 223.524 135.907 223.917C136.364 224.311 136.593 224.925 136.593 225.758V230.487H135.533L135.247 229.491H135.196C134.997 229.745 134.792 229.954 134.581 230.119C134.369 230.284 134.124 230.407 133.844 230.487C133.569 230.572 133.233 230.614 132.835 230.614C132.416 230.614 132.042 230.538 131.711 230.386C131.381 230.229 131.121 229.992 130.931 229.675C130.74 229.357 130.645 228.955 130.645 228.469C130.645 227.745 130.914 227.201 131.451 226.837C131.993 226.473 132.81 226.272 133.901 226.234L135.12 226.19V225.822C135.12 225.335 135.006 224.988 134.777 224.781C134.553 224.573 134.236 224.47 133.825 224.47C133.474 224.47 133.133 224.521 132.803 224.622C132.473 224.724 132.152 224.848 131.838 224.997L131.356 223.943C131.699 223.761 132.088 223.613 132.524 223.499C132.964 223.384 133.421 223.327 133.895 223.327ZM135.114 227.129L134.206 227.161C133.461 227.187 132.939 227.313 132.638 227.542C132.338 227.771 132.188 228.084 132.188 228.481C132.188 228.828 132.291 229.082 132.499 229.243C132.706 229.4 132.979 229.478 133.317 229.478C133.834 229.478 134.261 229.332 134.6 229.04C134.942 228.744 135.114 228.31 135.114 227.739V227.129ZM145.664 223.327C146.497 223.327 147.166 223.632 147.669 224.241C148.177 224.851 148.431 225.756 148.431 226.958C148.431 227.754 148.313 228.424 148.076 228.97C147.843 229.512 147.515 229.922 147.092 230.202C146.673 230.477 146.184 230.614 145.625 230.614C145.27 230.614 144.961 230.568 144.699 230.475C144.436 230.382 144.212 230.261 144.026 230.113C143.84 229.96 143.683 229.795 143.556 229.618H143.467C143.488 229.787 143.507 229.975 143.524 230.183C143.546 230.386 143.556 230.572 143.556 230.741V233.604H142.058V223.46H143.277L143.486 224.432H143.556C143.687 224.233 143.846 224.049 144.032 223.879C144.223 223.71 144.451 223.577 144.718 223.479C144.989 223.378 145.304 223.327 145.664 223.327ZM145.264 224.546C144.853 224.546 144.523 224.628 144.273 224.793C144.028 224.954 143.848 225.198 143.734 225.523C143.624 225.849 143.565 226.258 143.556 226.749V226.958C143.556 227.479 143.609 227.921 143.715 228.285C143.825 228.644 144.005 228.919 144.254 229.11C144.508 229.296 144.851 229.389 145.283 229.389C145.647 229.389 145.947 229.29 146.184 229.091C146.425 228.892 146.605 228.608 146.724 228.24C146.842 227.872 146.901 227.438 146.901 226.939C146.901 226.181 146.766 225.593 146.495 225.174C146.229 224.755 145.818 224.546 145.264 224.546ZM152.957 223.327C153.583 223.327 154.121 223.456 154.569 223.714C155.018 223.972 155.363 224.339 155.604 224.812C155.845 225.286 155.966 225.854 155.966 226.514V227.313H151.275C151.292 227.995 151.474 228.52 151.821 228.888C152.172 229.256 152.663 229.44 153.293 229.44C153.742 229.44 154.144 229.398 154.5 229.313C154.859 229.224 155.229 229.095 155.61 228.926V230.138C155.259 230.303 154.902 230.424 154.538 230.5C154.174 230.576 153.738 230.614 153.23 230.614C152.54 230.614 151.933 230.481 151.408 230.214C150.888 229.944 150.479 229.542 150.183 229.008C149.891 228.475 149.745 227.813 149.745 227.021C149.745 226.234 149.878 225.566 150.145 225.016C150.412 224.465 150.786 224.047 151.269 223.759C151.751 223.471 152.314 223.327 152.957 223.327ZM152.957 224.451C152.487 224.451 152.106 224.603 151.814 224.908C151.527 225.212 151.357 225.659 151.307 226.247H154.506C154.502 225.896 154.442 225.585 154.328 225.314C154.218 225.043 154.049 224.832 153.82 224.679C153.596 224.527 153.308 224.451 152.957 224.451ZM167.595 223.46V230.487H157.648V223.46H159.14V229.313H161.869V223.46H163.367V229.313H166.103V223.46H167.595ZM172.533 223.327C173.16 223.327 173.697 223.456 174.146 223.714C174.594 223.972 174.939 224.339 175.18 224.812C175.421 225.286 175.542 225.854 175.542 226.514V227.313H170.851C170.868 227.995 171.05 228.52 171.397 228.888C171.748 229.256 172.239 229.44 172.87 229.44C173.318 229.44 173.72 229.398 174.076 229.313C174.435 229.224 174.806 229.095 175.187 228.926V230.138C174.835 230.303 174.478 230.424 174.114 230.5C173.75 230.576 173.314 230.614 172.806 230.614C172.116 230.614 171.509 230.481 170.984 230.214C170.464 229.944 170.056 229.542 169.759 229.008C169.467 228.475 169.321 227.813 169.321 227.021C169.321 226.234 169.455 225.566 169.721 225.016C169.988 224.465 170.362 224.047 170.845 223.759C171.327 223.471 171.89 223.327 172.533 223.327ZM172.533 224.451C172.063 224.451 171.683 224.603 171.391 224.908C171.103 225.212 170.934 225.659 170.883 226.247H174.082C174.078 225.896 174.019 225.585 173.904 225.314C173.794 225.043 173.625 224.832 173.396 224.679C173.172 224.527 172.884 224.451 172.533 224.451ZM178.722 223.46V226.285H182.01V223.46H183.508V230.487H182.01V227.453H178.722V230.487H177.224V223.46H178.722ZM187.076 223.46V227.047C187.076 227.161 187.071 227.307 187.063 227.485C187.059 227.658 187.05 227.84 187.038 228.031C187.025 228.217 187.012 228.388 187 228.545C186.987 228.701 186.976 228.818 186.968 228.894L190.503 223.46H192.319V230.487H190.891V226.939C190.891 226.753 190.895 226.537 190.903 226.292C190.916 226.046 190.929 225.809 190.941 225.581C190.958 225.352 190.969 225.179 190.973 225.06L187.45 230.487H185.641V223.46H187.076ZM197.264 223.327C197.89 223.327 198.427 223.456 198.876 223.714C199.325 223.972 199.669 224.339 199.911 224.812C200.152 225.286 200.272 225.854 200.272 226.514V227.313H195.582C195.598 227.995 195.78 228.52 196.127 228.888C196.479 229.256 196.97 229.44 197.6 229.44C198.049 229.44 198.451 229.398 198.806 229.313C199.166 229.224 199.536 229.095 199.917 228.926V230.138C199.566 230.303 199.208 230.424 198.844 230.5C198.48 230.576 198.044 230.614 197.537 230.614C196.847 230.614 196.24 230.481 195.715 230.214C195.194 229.944 194.786 229.542 194.49 229.008C194.198 228.475 194.052 227.813 194.052 227.021C194.052 226.234 194.185 225.566 194.452 225.016C194.718 224.465 195.093 224.047 195.575 223.759C196.058 223.471 196.62 223.327 197.264 223.327ZM197.264 224.451C196.794 224.451 196.413 224.603 196.121 224.908C195.833 225.212 195.664 225.659 195.613 226.247H198.812C198.808 225.896 198.749 225.585 198.635 225.314C198.525 225.043 198.355 224.832 198.127 224.679C197.903 224.527 197.615 224.451 197.264 224.451ZM118.343 238.327C118.86 238.327 119.323 238.397 119.733 238.537C120.148 238.672 120.476 238.877 120.717 239.152C120.958 239.427 121.079 239.77 121.079 240.181C121.079 240.604 120.956 240.942 120.711 241.196C120.47 241.446 120.142 241.626 119.727 241.736V241.793C120.019 241.865 120.284 241.969 120.521 242.104C120.757 242.235 120.946 242.413 121.085 242.637C121.229 242.857 121.301 243.141 121.301 243.488C121.301 243.881 121.185 244.239 120.952 244.561C120.724 244.882 120.372 245.138 119.898 245.329C119.424 245.519 118.821 245.614 118.089 245.614C117.738 245.614 117.404 245.595 117.086 245.557C116.773 245.523 116.488 245.475 116.229 245.411C115.971 245.343 115.747 245.263 115.557 245.17V243.888C115.849 244.027 116.202 244.154 116.617 244.269C117.031 244.379 117.476 244.434 117.95 244.434C118.301 244.434 118.618 244.402 118.902 244.338C119.19 244.271 119.416 244.161 119.581 244.008C119.75 243.856 119.835 243.653 119.835 243.399C119.835 243.166 119.761 242.974 119.613 242.821C119.465 242.669 119.243 242.557 118.946 242.485C118.65 242.409 118.276 242.371 117.823 242.371H116.985V241.272H117.721C118.343 241.272 118.83 241.205 119.181 241.069C119.537 240.93 119.714 240.688 119.714 240.346C119.714 240.058 119.59 239.842 119.34 239.698C119.09 239.554 118.707 239.482 118.191 239.482C117.835 239.482 117.484 239.523 117.137 239.603C116.79 239.679 116.443 239.789 116.096 239.933L115.626 238.835C116.012 238.678 116.424 238.556 116.864 238.467C117.304 238.374 117.797 238.327 118.343 238.327ZM125.668 238.327C126.557 238.327 127.228 238.524 127.681 238.917C128.138 239.311 128.366 239.925 128.366 240.758V245.487H127.306L127.021 244.491H126.97C126.771 244.745 126.566 244.954 126.354 245.119C126.142 245.284 125.897 245.407 125.618 245.487C125.343 245.572 125.006 245.614 124.608 245.614C124.189 245.614 123.815 245.538 123.485 245.386C123.155 245.229 122.895 244.992 122.704 244.675C122.514 244.357 122.418 243.955 122.418 243.469C122.418 242.745 122.687 242.201 123.225 241.837C123.766 241.473 124.583 241.272 125.675 241.234L126.894 241.19V240.822C126.894 240.335 126.779 239.988 126.551 239.781C126.326 239.573 126.009 239.47 125.599 239.47C125.247 239.47 124.907 239.521 124.577 239.622C124.247 239.724 123.925 239.848 123.612 239.997L123.129 238.943C123.472 238.761 123.861 238.613 124.297 238.499C124.737 238.384 125.194 238.327 125.668 238.327ZM126.887 242.129L125.979 242.161C125.235 242.187 124.712 242.313 124.412 242.542C124.111 242.771 123.961 243.084 123.961 243.481C123.961 243.828 124.065 244.082 124.272 244.243C124.479 244.4 124.752 244.478 125.091 244.478C125.607 244.478 126.035 244.332 126.373 244.04C126.716 243.744 126.887 243.31 126.887 242.739V242.129ZM136.193 238.46V244.332H137.208V247.963H135.831V245.487H130.981V247.963H129.604V244.332H130.175C130.531 243.816 130.827 243.24 131.064 242.605C131.305 241.971 131.491 241.302 131.623 240.6C131.758 239.893 131.843 239.18 131.876 238.46H136.193ZM134.714 239.603H133.159C133.108 240.174 133.021 240.743 132.898 241.311C132.776 241.873 132.617 242.413 132.422 242.929C132.232 243.441 132.003 243.909 131.737 244.332H134.714V239.603ZM141.271 238.327C142.16 238.327 142.83 238.524 143.283 238.917C143.74 239.311 143.969 239.925 143.969 240.758V245.487H142.909L142.623 244.491H142.572C142.373 244.745 142.168 244.954 141.957 245.119C141.745 245.284 141.5 245.407 141.22 245.487C140.945 245.572 140.609 245.614 140.211 245.614C139.792 245.614 139.417 245.538 139.087 245.386C138.757 245.229 138.497 244.992 138.307 244.675C138.116 244.357 138.021 243.955 138.021 243.469C138.021 242.745 138.29 242.201 138.827 241.837C139.369 241.473 140.186 241.272 141.277 241.234L142.496 241.19V240.822C142.496 240.335 142.382 239.988 142.153 239.781C141.929 239.573 141.612 239.47 141.201 239.47C140.85 239.47 140.509 239.521 140.179 239.622C139.849 239.724 139.528 239.848 139.214 239.997L138.732 238.943C139.075 238.761 139.464 238.613 139.9 238.499C140.34 238.384 140.797 238.327 141.271 238.327ZM142.49 242.129L141.582 242.161C140.837 242.187 140.315 242.313 140.014 242.542C139.714 242.771 139.563 243.084 139.563 243.481C139.563 243.828 139.667 244.082 139.875 244.243C140.082 244.4 140.355 244.478 140.693 244.478C141.21 244.478 141.637 244.332 141.976 244.04C142.318 243.744 142.49 243.31 142.49 242.739V242.129ZM147.365 238.46V241.006C147.365 241.378 147.462 241.655 147.657 241.837C147.851 242.019 148.131 242.11 148.495 242.11C148.901 242.11 149.273 242.055 149.612 241.945C149.955 241.835 150.299 241.687 150.646 241.501V238.46H152.138V245.487H150.646V242.517C150.295 242.724 149.929 242.897 149.548 243.037C149.167 243.177 148.721 243.247 148.209 243.247C147.481 243.247 146.91 243.058 146.495 242.682C146.08 242.305 145.873 241.768 145.873 241.069V238.46H147.365ZM162.002 238.46H163.646L160.739 241.837L163.894 245.487H162.174L159.146 241.92V245.487H157.648V238.46H159.146V241.869L162.002 238.46ZM170.819 245.487H169.315V239.628H167.366C167.282 240.695 167.176 241.607 167.049 242.364C166.922 243.122 166.763 243.74 166.573 244.218C166.382 244.692 166.147 245.039 165.868 245.259C165.589 245.479 165.252 245.589 164.859 245.589C164.685 245.589 164.529 245.576 164.389 245.551C164.25 245.53 164.125 245.496 164.015 245.449V244.275C164.087 244.3 164.165 244.321 164.25 244.338C164.334 244.355 164.421 244.364 164.51 244.364C164.666 244.364 164.81 244.3 164.941 244.173C165.077 244.042 165.202 243.837 165.316 243.558C165.43 243.278 165.534 242.91 165.627 242.453C165.72 241.992 165.805 241.433 165.881 240.777C165.957 240.117 166.025 239.345 166.084 238.46H170.819V245.487ZM174.393 238.46V242.047C174.393 242.161 174.389 242.307 174.38 242.485C174.376 242.658 174.368 242.84 174.355 243.031C174.342 243.217 174.33 243.388 174.317 243.545C174.304 243.701 174.294 243.818 174.285 243.894L177.821 238.46H179.636V245.487H178.208V241.939C178.208 241.753 178.212 241.537 178.221 241.292C178.233 241.046 178.246 240.809 178.259 240.581C178.276 240.352 178.286 240.179 178.291 240.06L174.768 245.487H172.958V238.46H174.393ZM184.581 238.327C185.207 238.327 185.745 238.456 186.193 238.714C186.642 238.972 186.987 239.339 187.228 239.812C187.469 240.286 187.59 240.854 187.59 241.514V242.313H182.899C182.916 242.995 183.098 243.52 183.445 243.888C183.796 244.256 184.287 244.44 184.917 244.44C185.366 244.44 185.768 244.398 186.124 244.313C186.483 244.224 186.854 244.095 187.234 243.926V245.138C186.883 245.303 186.526 245.424 186.162 245.5C185.798 245.576 185.362 245.614 184.854 245.614C184.164 245.614 183.557 245.481 183.032 245.214C182.512 244.944 182.103 244.542 181.807 244.008C181.515 243.475 181.369 242.813 181.369 242.021C181.369 241.234 181.502 240.566 181.769 240.016C182.036 239.465 182.41 239.047 182.893 238.759C183.375 238.471 183.938 238.327 184.581 238.327ZM184.581 239.451C184.111 239.451 183.73 239.603 183.438 239.908C183.151 240.212 182.981 240.659 182.931 241.247H186.13C186.126 240.896 186.066 240.585 185.952 240.314C185.842 240.043 185.673 239.832 185.444 239.679C185.22 239.527 184.932 239.451 184.581 239.451ZM190.77 238.46V241.285H194.058V238.46H195.556V245.487H194.058V242.453H190.77V245.487H189.272V238.46H190.77ZM202.996 239.635H200.685V245.487H199.2V239.635H196.902V238.46H202.996V239.635ZM207.109 238.327C207.998 238.327 208.668 238.524 209.121 238.917C209.578 239.311 209.807 239.925 209.807 240.758V245.487H208.747L208.461 244.491H208.41C208.211 244.745 208.006 244.954 207.794 245.119C207.583 245.284 207.337 245.407 207.058 245.487C206.783 245.572 206.447 245.614 206.049 245.614C205.63 245.614 205.255 245.538 204.925 245.386C204.595 245.229 204.335 244.992 204.145 244.675C203.954 244.357 203.859 243.955 203.859 243.469C203.859 242.745 204.128 242.201 204.665 241.837C205.207 241.473 206.023 241.272 207.115 241.234L208.334 241.19V240.822C208.334 240.335 208.22 239.988 207.991 239.781C207.767 239.573 207.45 239.47 207.039 239.47C206.688 239.47 206.347 239.521 206.017 239.622C205.687 239.724 205.365 239.848 205.052 239.997L204.57 238.943C204.913 238.761 205.302 238.613 205.738 238.499C206.178 238.384 206.635 238.327 207.109 238.327ZM208.328 242.129L207.42 242.161C206.675 242.187 206.153 242.313 205.852 242.542C205.552 242.771 205.401 243.084 205.401 243.481C205.401 243.828 205.505 244.082 205.712 244.243C205.92 244.4 206.193 244.478 206.531 244.478C207.048 244.478 207.475 244.332 207.813 244.04C208.156 243.744 208.328 243.31 208.328 242.739V242.129Z" fill="#5B5B5B"/>
<defs>
<clipPath id="clip0_349_6863">
<rect width="105" height="105" fill="white" transform="translate(110.461 77.4873)"/>
</clipPath>
</defs>
</svg>
