<svg width="326" height="325" viewBox="0 0 326 325" fill="none" xmlns="http://www.w3.org/2000/svg">
<path d="M46.3511 162.5L104.676 61.4791L221.324 61.4791L279.649 162.5L221.324 263.521L104.676 263.521L46.3511 162.5Z" stroke="#FF4500" stroke-width="4"/>
<g clip-path="url(#clip0_49_1552)">
<path d="M164.718 162.595C183.005 162.595 197.829 147.771 197.829 129.484C197.829 111.197 183.005 96.3722 164.718 96.3722C146.431 96.3722 131.606 111.197 131.606 129.484C131.606 147.771 146.431 162.595 164.718 162.595Z" stroke="#FF4500" stroke-width="0.808099" stroke-miterlimit="10"/>
<path d="M164.718 162.595C183.005 162.595 197.829 147.771 197.829 129.484C197.829 111.197 183.005 96.3722 164.718 96.3722C146.431 96.3722 131.606 111.197 131.606 129.484C131.606 147.771 146.431 162.595 164.718 162.595Z" stroke="#FF4500" stroke-width="1.6162" stroke-miterlimit="10"/>
<path d="M164.719 140.941C171.046 140.941 176.175 135.812 176.175 129.484C176.175 123.157 171.046 118.027 164.719 118.027C158.391 118.027 153.262 123.157 153.262 129.484C153.262 135.812 158.391 140.941 164.719 140.941Z" stroke="#FF4500" stroke-width="1.6162" stroke-miterlimit="10"/>
<path d="M164.719 174.934C189.82 174.934 210.169 154.585 210.169 129.484C210.169 104.383 189.82 84.0344 164.719 84.0344C139.618 84.0344 119.27 104.383 119.27 129.484C119.27 154.585 139.618 174.934 164.719 174.934Z" stroke="#FF4500" stroke-width="1.6162" stroke-miterlimit="10"/>
<path d="M113.102 129.484H145.206" stroke="#FF4500" stroke-width="1.6162" stroke-miterlimit="10"/>
<path d="M183.855 129.484H215.834" stroke="#FF4500" stroke-width="1.6162" stroke-miterlimit="10"/>
<path d="M164.466 77.9913V110.096" stroke="#FF4500" stroke-width="1.6162" stroke-miterlimit="10"/>
<path d="M164.466 148.746V180.851" stroke="#FF4500" stroke-width="1.6162" stroke-miterlimit="10"/>
</g>
<path d="M123.063 215.487H121.546V211.298H117.268V215.487H115.745V206.207H117.268V210.003H121.546V206.207H123.063V215.487ZM128.123 208.327C129.011 208.327 129.682 208.524 130.135 208.918C130.592 209.311 130.82 209.925 130.82 210.758V215.487H129.76L129.475 214.491H129.424C129.225 214.745 129.02 214.954 128.808 215.119C128.597 215.284 128.351 215.407 128.072 215.487C127.797 215.572 127.46 215.614 127.062 215.614C126.644 215.614 126.269 215.538 125.939 215.386C125.609 215.229 125.349 214.992 125.158 214.675C124.968 214.358 124.873 213.956 124.873 213.469C124.873 212.745 125.141 212.201 125.679 211.838C126.22 211.474 127.037 211.273 128.129 211.234L129.348 211.19V210.822C129.348 210.335 129.233 209.988 129.005 209.781C128.781 209.574 128.463 209.47 128.053 209.47C127.701 209.47 127.361 209.521 127.031 209.622C126.701 209.724 126.379 209.849 126.066 209.997L125.583 208.943C125.926 208.761 126.316 208.613 126.751 208.499C127.192 208.384 127.649 208.327 128.123 208.327ZM129.341 212.13L128.434 212.161C127.689 212.187 127.166 212.314 126.866 212.542C126.565 212.771 126.415 213.084 126.415 213.482C126.415 213.829 126.519 214.082 126.726 214.243C126.933 214.4 127.206 214.478 127.545 214.478C128.061 214.478 128.489 214.332 128.827 214.04C129.17 213.744 129.341 213.31 129.341 212.739V212.13ZM140.164 217.963H138.78V215.487H132.909V208.461H134.407V214.313H137.663V208.461H139.161V214.339H140.164V217.963ZM144.252 208.327C144.878 208.327 145.416 208.456 145.864 208.714C146.313 208.973 146.658 209.339 146.899 209.813C147.14 210.287 147.261 210.854 147.261 211.514V212.314H142.57C142.587 212.995 142.769 213.52 143.116 213.888C143.467 214.256 143.958 214.44 144.588 214.44C145.037 214.44 145.439 214.398 145.794 214.313C146.154 214.224 146.524 214.095 146.905 213.926V215.138C146.554 215.303 146.196 215.424 145.833 215.5C145.469 215.576 145.033 215.614 144.525 215.614C143.835 215.614 143.228 215.481 142.703 215.214C142.183 214.944 141.774 214.542 141.478 214.008C141.186 213.475 141.04 212.813 141.04 212.022C141.04 211.234 141.173 210.566 141.44 210.016C141.707 209.466 142.081 209.047 142.563 208.759C143.046 208.471 143.609 208.327 144.252 208.327ZM144.252 209.451C143.782 209.451 143.401 209.603 143.109 209.908C142.822 210.213 142.652 210.659 142.602 211.247H145.801C145.797 210.896 145.737 210.585 145.623 210.314C145.513 210.043 145.344 209.832 145.115 209.679C144.891 209.527 144.603 209.451 144.252 209.451ZM154.726 215.487H153.221V209.629H151.272C151.188 210.695 151.082 211.607 150.955 212.364C150.828 213.122 150.669 213.74 150.479 214.218C150.289 214.692 150.054 215.039 149.774 215.259C149.495 215.479 149.159 215.589 148.765 215.589C148.592 215.589 148.435 215.576 148.295 215.551C148.156 215.53 148.031 215.496 147.921 215.449V214.275C147.993 214.3 148.071 214.322 148.156 214.339C148.24 214.355 148.327 214.364 148.416 214.364C148.573 214.364 148.716 214.3 148.848 214.173C148.983 214.042 149.108 213.837 149.222 213.558C149.336 213.278 149.44 212.91 149.533 212.453C149.626 211.992 149.711 211.433 149.787 210.777C149.863 210.117 149.931 209.345 149.99 208.461H154.726V215.487ZM159.664 208.327C160.29 208.327 160.828 208.456 161.276 208.714C161.725 208.973 162.07 209.339 162.311 209.813C162.552 210.287 162.673 210.854 162.673 211.514V212.314H157.982C157.999 212.995 158.181 213.52 158.528 213.888C158.879 214.256 159.37 214.44 160 214.44C160.449 214.44 160.851 214.398 161.207 214.313C161.566 214.224 161.937 214.095 162.317 213.926V215.138C161.966 215.303 161.609 215.424 161.245 215.5C160.881 215.576 160.445 215.614 159.937 215.614C159.247 215.614 158.64 215.481 158.115 215.214C157.595 214.944 157.186 214.542 156.89 214.008C156.598 213.475 156.452 212.813 156.452 212.022C156.452 211.234 156.585 210.566 156.852 210.016C157.119 209.466 157.493 209.047 157.976 208.759C158.458 208.471 159.021 208.327 159.664 208.327ZM159.664 209.451C159.194 209.451 158.813 209.603 158.521 209.908C158.234 210.213 158.064 210.659 158.014 211.247H161.213C161.209 210.896 161.149 210.585 161.035 210.314C160.925 210.043 160.756 209.832 160.527 209.679C160.303 209.527 160.015 209.451 159.664 209.451ZM165.853 208.461V211.285H169.141V208.461H170.639V215.487H169.141V212.453H165.853V215.487H164.355V208.461H165.853ZM174.27 208.461V211.285H177.558V208.461H179.056V215.487H177.558V212.453H174.27V215.487H172.772V208.461H174.27ZM187.41 211.958C187.41 212.542 187.333 213.061 187.181 213.513C187.029 213.966 186.807 214.349 186.515 214.662C186.223 214.971 185.871 215.208 185.461 215.373C185.05 215.534 184.587 215.614 184.071 215.614C183.588 215.614 183.146 215.534 182.744 215.373C182.342 215.208 181.993 214.971 181.697 214.662C181.405 214.349 181.178 213.966 181.018 213.513C180.857 213.061 180.776 212.542 180.776 211.958C180.776 211.184 180.91 210.528 181.176 209.99C181.447 209.449 181.832 209.036 182.332 208.753C182.831 208.469 183.425 208.327 184.115 208.327C184.763 208.327 185.334 208.469 185.829 208.753C186.324 209.036 186.711 209.449 186.991 209.99C187.27 210.532 187.41 211.188 187.41 211.958ZM182.312 211.958C182.312 212.47 182.374 212.908 182.497 213.272C182.624 213.636 182.818 213.915 183.081 214.11C183.343 214.3 183.681 214.396 184.096 214.396C184.511 214.396 184.849 214.3 185.112 214.11C185.374 213.915 185.567 213.636 185.689 213.272C185.812 212.908 185.874 212.47 185.874 211.958C185.874 211.446 185.812 211.012 185.689 210.657C185.567 210.297 185.374 210.024 185.112 209.838C184.849 209.648 184.509 209.552 184.09 209.552C183.472 209.552 183.021 209.76 182.738 210.174C182.454 210.589 182.312 211.184 182.312 211.958ZM191.955 215.614C191.29 215.614 190.715 215.485 190.228 215.227C189.741 214.969 189.367 214.573 189.104 214.04C188.842 213.507 188.711 212.83 188.711 212.009C188.711 211.154 188.855 210.456 189.143 209.914C189.43 209.373 189.828 208.973 190.336 208.714C190.848 208.456 191.434 208.327 192.094 208.327C192.513 208.327 192.892 208.37 193.23 208.454C193.573 208.535 193.863 208.634 194.1 208.753L193.656 209.946C193.398 209.84 193.133 209.751 192.862 209.679C192.591 209.607 192.331 209.571 192.082 209.571C191.671 209.571 191.328 209.662 191.053 209.844C190.782 210.026 190.579 210.297 190.444 210.657C190.313 211.017 190.247 211.463 190.247 211.996C190.247 212.512 190.315 212.948 190.45 213.304C190.586 213.655 190.787 213.922 191.053 214.104C191.32 214.281 191.648 214.37 192.037 214.37C192.422 214.37 192.767 214.324 193.072 214.231C193.376 214.137 193.664 214.017 193.935 213.869V215.164C193.668 215.316 193.383 215.428 193.078 215.5C192.773 215.576 192.399 215.614 191.955 215.614ZM200.892 209.635H198.582V215.487H197.096V209.635H194.798V208.461H200.892V209.635ZM203.749 211.266H205.494C206.154 211.266 206.7 211.342 207.132 211.495C207.568 211.643 207.894 211.867 208.109 212.168C208.325 212.468 208.433 212.845 208.433 213.297C208.433 213.742 208.332 214.129 208.128 214.459C207.925 214.785 207.608 215.039 207.176 215.221C206.749 215.399 206.19 215.487 205.5 215.487H202.25V208.461H203.749V211.266ZM206.935 213.336C206.935 212.984 206.804 212.737 206.542 212.593C206.279 212.445 205.905 212.371 205.418 212.371H203.749V214.389H205.431C205.875 214.389 206.237 214.309 206.516 214.148C206.795 213.983 206.935 213.712 206.935 213.336ZM124.72 223.461V226.285H128.008V223.461H129.506V230.487H128.008V227.453H124.72V230.487H123.222V223.461H124.72ZM134.394 223.327C135.283 223.327 135.953 223.524 136.406 223.918C136.863 224.311 137.092 224.925 137.092 225.758V230.487H136.032L135.746 229.491H135.695C135.496 229.745 135.291 229.954 135.08 230.119C134.868 230.284 134.623 230.407 134.343 230.487C134.068 230.572 133.732 230.614 133.334 230.614C132.915 230.614 132.541 230.538 132.21 230.386C131.88 230.229 131.62 229.992 131.43 229.675C131.239 229.358 131.144 228.956 131.144 228.469C131.144 227.745 131.413 227.201 131.95 226.838C132.492 226.474 133.309 226.273 134.4 226.234L135.619 226.19V225.822C135.619 225.335 135.505 224.988 135.276 224.781C135.052 224.574 134.735 224.47 134.324 224.47C133.973 224.47 133.632 224.521 133.302 224.622C132.972 224.724 132.651 224.849 132.337 224.997L131.855 223.943C132.198 223.761 132.587 223.613 133.023 223.499C133.463 223.384 133.92 223.327 134.394 223.327ZM135.613 227.13L134.705 227.161C133.96 227.187 133.438 227.314 133.137 227.542C132.837 227.771 132.687 228.084 132.687 228.482C132.687 228.829 132.79 229.082 132.998 229.243C133.205 229.4 133.478 229.478 133.816 229.478C134.333 229.478 134.76 229.332 135.099 229.04C135.441 228.744 135.613 228.31 135.613 227.739V227.13ZM146.163 223.327C146.996 223.327 147.665 223.632 148.168 224.241C148.676 224.851 148.93 225.756 148.93 226.958C148.93 227.754 148.812 228.424 148.575 228.97C148.342 229.512 148.014 229.922 147.591 230.202C147.172 230.477 146.683 230.614 146.125 230.614C145.769 230.614 145.46 230.568 145.198 230.475C144.935 230.382 144.711 230.261 144.525 230.113C144.339 229.961 144.182 229.796 144.055 229.618H143.966C143.987 229.787 144.007 229.975 144.023 230.183C144.045 230.386 144.055 230.572 144.055 230.741V233.604H142.557V223.461H143.776L143.985 224.432H144.055C144.186 224.233 144.345 224.049 144.531 223.88C144.722 223.71 144.95 223.577 145.217 223.48C145.488 223.378 145.803 223.327 146.163 223.327ZM145.763 224.546C145.352 224.546 145.022 224.629 144.772 224.794C144.527 224.954 144.347 225.198 144.233 225.524C144.123 225.849 144.064 226.258 144.055 226.749V226.958C144.055 227.479 144.108 227.921 144.214 228.285C144.324 228.644 144.504 228.92 144.753 229.11C145.007 229.296 145.35 229.389 145.782 229.389C146.146 229.389 146.446 229.29 146.683 229.091C146.924 228.892 147.104 228.609 147.223 228.24C147.341 227.872 147.4 227.438 147.4 226.939C147.4 226.182 147.265 225.593 146.994 225.174C146.728 224.755 146.317 224.546 145.763 224.546ZM153.456 223.327C154.082 223.327 154.62 223.456 155.068 223.714C155.517 223.973 155.862 224.339 156.103 224.813C156.344 225.287 156.465 225.854 156.465 226.514V227.314H151.774C151.791 227.995 151.973 228.52 152.32 228.888C152.671 229.256 153.162 229.44 153.792 229.44C154.241 229.44 154.643 229.398 154.999 229.313C155.358 229.224 155.729 229.095 156.109 228.926V230.138C155.758 230.303 155.401 230.424 155.037 230.5C154.673 230.576 154.237 230.614 153.729 230.614C153.039 230.614 152.432 230.481 151.907 230.214C151.387 229.944 150.978 229.542 150.682 229.008C150.39 228.475 150.244 227.813 150.244 227.022C150.244 226.234 150.377 225.566 150.644 225.016C150.911 224.466 151.285 224.047 151.768 223.759C152.25 223.471 152.813 223.327 153.456 223.327ZM153.456 224.451C152.986 224.451 152.605 224.603 152.313 224.908C152.026 225.213 151.856 225.659 151.806 226.247H155.005C155.001 225.896 154.941 225.585 154.827 225.314C154.717 225.043 154.548 224.832 154.319 224.679C154.095 224.527 153.807 224.451 153.456 224.451ZM168.094 223.461V230.487H158.147V223.461H159.639V229.313H162.368V223.461H163.866V229.313H166.602V223.461H168.094ZM173.032 223.327C173.659 223.327 174.196 223.456 174.645 223.714C175.093 223.973 175.438 224.339 175.679 224.813C175.92 225.287 176.041 225.854 176.041 226.514V227.314H171.35C171.367 227.995 171.549 228.52 171.896 228.888C172.247 229.256 172.738 229.44 173.369 229.44C173.817 229.44 174.219 229.398 174.575 229.313C174.934 229.224 175.305 229.095 175.686 228.926V230.138C175.334 230.303 174.977 230.424 174.613 230.5C174.249 230.576 173.813 230.614 173.305 230.614C172.615 230.614 172.008 230.481 171.483 230.214C170.963 229.944 170.555 229.542 170.258 229.008C169.966 228.475 169.82 227.813 169.82 227.022C169.82 226.234 169.954 225.566 170.22 225.016C170.487 224.466 170.861 224.047 171.344 223.759C171.826 223.471 172.389 223.327 173.032 223.327ZM173.032 224.451C172.562 224.451 172.182 224.603 171.89 224.908C171.602 225.213 171.433 225.659 171.382 226.247H174.581C174.577 225.896 174.518 225.585 174.403 225.314C174.293 225.043 174.124 224.832 173.896 224.679C173.671 224.527 173.383 224.451 173.032 224.451ZM179.221 223.461V226.285H182.509V223.461H184.007V230.487H182.509V227.453H179.221V230.487H177.723V223.461H179.221ZM187.575 223.461V227.047C187.575 227.161 187.57 227.307 187.562 227.485C187.558 227.658 187.549 227.84 187.537 228.031C187.524 228.217 187.511 228.388 187.499 228.545C187.486 228.702 187.475 228.818 187.467 228.894L191.002 223.461H192.818V230.487H191.39V226.939C191.39 226.753 191.394 226.537 191.402 226.292C191.415 226.046 191.428 225.809 191.44 225.581C191.457 225.352 191.468 225.179 191.472 225.06L187.949 230.487H186.14V223.461H187.575ZM197.763 223.327C198.389 223.327 198.926 223.456 199.375 223.714C199.824 223.973 200.168 224.339 200.41 224.813C200.651 225.287 200.771 225.854 200.771 226.514V227.314H196.081C196.097 227.995 196.279 228.52 196.626 228.888C196.978 229.256 197.469 229.44 198.099 229.44C198.548 229.44 198.95 229.398 199.305 229.313C199.665 229.224 200.035 229.095 200.416 228.926V230.138C200.065 230.303 199.707 230.424 199.343 230.5C198.979 230.576 198.543 230.614 198.036 230.614C197.346 230.614 196.739 230.481 196.214 230.214C195.693 229.944 195.285 229.542 194.989 229.008C194.697 228.475 194.551 227.813 194.551 227.022C194.551 226.234 194.684 225.566 194.951 225.016C195.217 224.466 195.592 224.047 196.074 223.759C196.557 223.471 197.119 223.327 197.763 223.327ZM197.763 224.451C197.293 224.451 196.912 224.603 196.62 224.908C196.332 225.213 196.163 225.659 196.112 226.247H199.312C199.307 225.896 199.248 225.585 199.134 225.314C199.024 225.043 198.854 224.832 198.626 224.679C198.402 224.527 198.114 224.451 197.763 224.451ZM118.842 238.327C119.359 238.327 119.822 238.397 120.232 238.537C120.647 238.672 120.975 238.877 121.216 239.152C121.458 239.428 121.578 239.77 121.578 240.181C121.578 240.604 121.455 240.943 121.21 241.196C120.969 241.446 120.641 241.626 120.226 241.736V241.793C120.518 241.865 120.783 241.969 121.02 242.104C121.257 242.235 121.445 242.413 121.584 242.637C121.728 242.857 121.8 243.141 121.8 243.488C121.8 243.881 121.684 244.239 121.451 244.561C121.223 244.882 120.871 245.138 120.397 245.329C119.924 245.519 119.32 245.614 118.588 245.614C118.237 245.614 117.903 245.595 117.585 245.557C117.272 245.523 116.987 245.475 116.729 245.411C116.47 245.344 116.246 245.263 116.056 245.17V243.888C116.348 244.027 116.701 244.154 117.116 244.269C117.53 244.379 117.975 244.434 118.449 244.434C118.8 244.434 119.117 244.402 119.401 244.339C119.689 244.271 119.915 244.161 120.08 244.008C120.249 243.856 120.334 243.653 120.334 243.399C120.334 243.166 120.26 242.974 120.112 242.821C119.964 242.669 119.742 242.557 119.445 242.485C119.149 242.409 118.775 242.371 118.322 242.371H117.484V241.273H118.22C118.842 241.273 119.329 241.205 119.68 241.069C120.036 240.93 120.213 240.689 120.213 240.346C120.213 240.058 120.089 239.842 119.839 239.698C119.589 239.554 119.206 239.483 118.69 239.483C118.334 239.483 117.983 239.523 117.636 239.603C117.289 239.679 116.942 239.789 116.595 239.933L116.125 238.835C116.511 238.679 116.923 238.556 117.363 238.467C117.803 238.374 118.296 238.327 118.842 238.327ZM126.167 238.327C127.056 238.327 127.727 238.524 128.18 238.918C128.637 239.311 128.865 239.925 128.865 240.758V245.487H127.805L127.52 244.491H127.469C127.27 244.745 127.065 244.954 126.853 245.119C126.641 245.284 126.396 245.407 126.117 245.487C125.842 245.572 125.505 245.614 125.107 245.614C124.688 245.614 124.314 245.538 123.984 245.386C123.654 245.229 123.394 244.992 123.203 244.675C123.013 244.358 122.917 243.956 122.917 243.469C122.917 242.745 123.186 242.201 123.724 241.838C124.265 241.474 125.082 241.273 126.174 241.234L127.393 241.19V240.822C127.393 240.335 127.278 239.988 127.05 239.781C126.826 239.574 126.508 239.47 126.098 239.47C125.746 239.47 125.406 239.521 125.076 239.622C124.746 239.724 124.424 239.849 124.111 239.997L123.628 238.943C123.971 238.761 124.361 238.613 124.796 238.499C125.236 238.384 125.694 238.327 126.167 238.327ZM127.386 242.13L126.479 242.161C125.734 242.187 125.211 242.314 124.911 242.542C124.61 242.771 124.46 243.084 124.46 243.482C124.46 243.829 124.564 244.082 124.771 244.243C124.978 244.4 125.251 244.478 125.59 244.478C126.106 244.478 126.534 244.332 126.872 244.04C127.215 243.744 127.386 243.31 127.386 242.739V242.13ZM136.692 238.461V244.332H137.708V247.963H136.33V245.487H131.48V247.963H130.103V244.332H130.674C131.03 243.816 131.326 243.24 131.563 242.606C131.804 241.971 131.99 241.302 132.122 240.6C132.257 239.893 132.342 239.18 132.375 238.461H136.692ZM135.213 239.603H133.658C133.607 240.174 133.52 240.744 133.397 241.311C133.275 241.873 133.116 242.413 132.921 242.929C132.731 243.441 132.502 243.909 132.236 244.332H135.213V239.603ZM141.77 238.327C142.659 238.327 143.329 238.524 143.782 238.918C144.239 239.311 144.468 239.925 144.468 240.758V245.487H143.408L143.122 244.491H143.071C142.872 244.745 142.667 244.954 142.456 245.119C142.244 245.284 141.999 245.407 141.719 245.487C141.444 245.572 141.108 245.614 140.71 245.614C140.291 245.614 139.917 245.538 139.586 245.386C139.256 245.229 138.996 244.992 138.806 244.675C138.615 244.358 138.52 243.956 138.52 243.469C138.52 242.745 138.789 242.201 139.326 241.838C139.868 241.474 140.685 241.273 141.776 241.234L142.995 241.19V240.822C142.995 240.335 142.881 239.988 142.652 239.781C142.428 239.574 142.111 239.47 141.7 239.47C141.349 239.47 141.008 239.521 140.678 239.622C140.348 239.724 140.027 239.849 139.713 239.997L139.231 238.943C139.574 238.761 139.963 238.613 140.399 238.499C140.839 238.384 141.296 238.327 141.77 238.327ZM142.989 242.13L142.081 242.161C141.336 242.187 140.814 242.314 140.513 242.542C140.213 242.771 140.062 243.084 140.062 243.482C140.062 243.829 140.166 244.082 140.374 244.243C140.581 244.4 140.854 244.478 141.192 244.478C141.709 244.478 142.136 244.332 142.475 244.04C142.817 243.744 142.989 243.31 142.989 242.739V242.13ZM147.864 238.461V241.006C147.864 241.378 147.961 241.656 148.156 241.838C148.35 242.019 148.63 242.11 148.994 242.11C149.4 242.11 149.772 242.055 150.111 241.945C150.454 241.835 150.799 241.687 151.146 241.501V238.461H152.637V245.487H151.146V242.517C150.794 242.724 150.428 242.898 150.047 243.037C149.667 243.177 149.22 243.247 148.708 243.247C147.98 243.247 147.409 243.058 146.994 242.682C146.579 242.305 146.372 241.768 146.372 241.069V238.461H147.864ZM162.501 238.461H164.146L161.238 241.838L164.393 245.487H162.673L159.645 241.92V245.487H158.147V238.461H159.645V241.869L162.501 238.461ZM171.318 245.487H169.814V239.629H167.865C167.781 240.695 167.675 241.607 167.548 242.364C167.421 243.122 167.262 243.74 167.072 244.218C166.881 244.692 166.646 245.039 166.367 245.259C166.088 245.479 165.751 245.589 165.358 245.589C165.184 245.589 165.028 245.576 164.888 245.551C164.749 245.53 164.624 245.496 164.514 245.449V244.275C164.586 244.3 164.664 244.322 164.749 244.339C164.833 244.355 164.92 244.364 165.009 244.364C165.165 244.364 165.309 244.3 165.44 244.173C165.576 244.042 165.701 243.837 165.815 243.558C165.929 243.278 166.033 242.91 166.126 242.453C166.219 241.992 166.304 241.433 166.38 240.777C166.456 240.117 166.524 239.345 166.583 238.461H171.318V245.487ZM174.892 238.461V242.047C174.892 242.161 174.888 242.307 174.879 242.485C174.875 242.658 174.867 242.84 174.854 243.031C174.841 243.217 174.829 243.388 174.816 243.545C174.803 243.702 174.793 243.818 174.784 243.894L178.32 238.461H180.135V245.487H178.707V241.939C178.707 241.753 178.711 241.537 178.72 241.292C178.732 241.046 178.745 240.809 178.758 240.581C178.775 240.352 178.785 240.179 178.79 240.06L175.267 245.487H173.458V238.461H174.892ZM185.08 238.327C185.706 238.327 186.244 238.456 186.692 238.714C187.141 238.973 187.486 239.339 187.727 239.813C187.968 240.287 188.089 240.854 188.089 241.514V242.314H183.398C183.415 242.995 183.597 243.52 183.944 243.888C184.295 244.256 184.786 244.44 185.417 244.44C185.865 244.44 186.267 244.398 186.623 244.313C186.982 244.224 187.353 244.095 187.733 243.926V245.138C187.382 245.303 187.025 245.424 186.661 245.5C186.297 245.576 185.861 245.614 185.353 245.614C184.663 245.614 184.056 245.481 183.531 245.214C183.011 244.944 182.602 244.542 182.306 244.008C182.014 243.475 181.868 242.813 181.868 242.022C181.868 241.234 182.001 240.566 182.268 240.016C182.535 239.466 182.909 239.047 183.392 238.759C183.874 238.471 184.437 238.327 185.08 238.327ZM185.08 239.451C184.61 239.451 184.229 239.603 183.938 239.908C183.65 240.213 183.48 240.659 183.43 241.247H186.629C186.625 240.896 186.565 240.585 186.451 240.314C186.341 240.043 186.172 239.832 185.943 239.679C185.719 239.527 185.431 239.451 185.08 239.451ZM191.269 238.461V241.285H194.557V238.461H196.055V245.487H194.557V242.453H191.269V245.487H189.771V238.461H191.269ZM203.495 239.635H201.184V245.487H199.699V239.635H197.401V238.461H203.495V239.635ZM207.608 238.327C208.497 238.327 209.167 238.524 209.62 238.918C210.077 239.311 210.306 239.925 210.306 240.758V245.487H209.246L208.96 244.491H208.909C208.71 244.745 208.505 244.954 208.293 245.119C208.082 245.284 207.836 245.407 207.557 245.487C207.282 245.572 206.946 245.614 206.548 245.614C206.129 245.614 205.754 245.538 205.424 245.386C205.094 245.229 204.834 244.992 204.644 244.675C204.453 244.358 204.358 243.956 204.358 243.469C204.358 242.745 204.627 242.201 205.164 241.838C205.706 241.474 206.522 241.273 207.614 241.234L208.833 241.19V240.822C208.833 240.335 208.719 239.988 208.49 239.781C208.266 239.574 207.949 239.47 207.538 239.47C207.187 239.47 206.846 239.521 206.516 239.622C206.186 239.724 205.864 239.849 205.551 239.997L205.069 238.943C205.412 238.761 205.801 238.613 206.237 238.499C206.677 238.384 207.134 238.327 207.608 238.327ZM208.827 242.13L207.919 242.161C207.174 242.187 206.652 242.314 206.351 242.542C206.051 242.771 205.9 243.084 205.9 243.482C205.9 243.829 206.004 244.082 206.211 244.243C206.419 244.4 206.692 244.478 207.03 244.478C207.547 244.478 207.974 244.332 208.312 244.04C208.655 243.744 208.827 243.31 208.827 242.739V242.13Z" fill="#5B5B5B"/>
<defs>
<clipPath id="clip0_49_1552">
<rect width="105" height="105" fill="white" transform="translate(110.96 77.4874)"/>
</clipPath>
</defs>
</svg>
